<svg width="26" height="26" viewBox="0 0 26 26" fill="none" xmlns="http://www.w3.org/2000/svg">
<path d="M12.7281 9.25668L9.51394 6.04256C8.7329 5.26151 7.46657 5.26151 6.68552 6.04256L6.04269 6.68538C5.26164 7.46643 5.26164 8.73276 6.04269 9.51381L9.25682 12.7279M16.1993 12.7279L19.4134 15.9421C20.1945 16.7231 20.1945 17.9894 19.4134 18.7705L18.7706 19.4133C17.9896 20.1943 16.7232 20.1943 15.9422 19.4133L12.7281 16.1992" stroke="black"/>
<path d="M15.91 13.0172L19.4134 9.51379C20.1945 8.73274 20.1945 7.46641 19.4134 6.68536L18.7706 6.04254C17.9896 5.26149 16.7232 5.26149 15.9422 6.04254L12.4388 9.54593M13.0173 15.9099L9.51393 19.4133C8.73288 20.1943 7.46655 20.1943 6.6855 19.4133L6.04268 18.7705C5.26163 17.9894 5.26163 16.7231 6.04268 15.942L9.54607 12.4386" stroke="black" stroke-linejoin="round"/>
</svg>
