<svg width="26" height="26" viewBox="0 0 26 26" fill="none" xmlns="http://www.w3.org/2000/svg">
<path d="M12.7279 9.25669L9.51376 6.04257C8.73271 5.26152 7.46638 5.26152 6.68533 6.04257L6.04251 6.68539C5.26146 7.46644 5.26146 8.73277 6.04251 9.51382L9.25663 12.7279M16.1991 12.7279L19.4133 15.9421C20.1943 16.7231 20.1943 17.9894 19.4133 18.7705L18.7704 19.4133C17.9894 20.1944 16.7231 20.1944 15.942 19.4133L12.7279 16.1992" stroke="white"/>
<path d="M15.9099 13.0172L19.4133 9.51382C20.1943 8.73277 20.1943 7.46644 19.4133 6.68539L18.7705 6.04257C17.9894 5.26152 16.7231 5.26152 15.942 6.04257L12.4387 9.54596M13.0172 15.9099L9.51381 19.4133C8.73276 20.1944 7.46643 20.1944 6.68538 19.4133L6.04255 18.7705C5.26151 17.9894 5.26151 16.7231 6.04255 15.9421L9.54595 12.4387" stroke="white" stroke-linejoin="round"/>
</svg>
