<svg width="58" height="57" viewBox="0 0 58 57" fill="none" xmlns="http://www.w3.org/2000/svg">
<rect x="1" y="1" width="51" height="51" rx="2" stroke="#DC7700" stroke-width="2" stroke-linejoin="round"/>
<rect x="7" y="7" width="39" height="5" rx="2" fill="#DC7700"/>
<rect x="7" y="18" width="39" height="3" rx="1.5" fill="#DC7700"/>
<rect x="7" y="26" width="39" height="3" rx="1.5" fill="#DC7700"/>
<rect x="7" y="34" width="39" height="3" rx="1.5" fill="#DC7700"/>
<rect x="7" y="42" width="39" height="3" rx="1.5" fill="#DC7700"/>
<mask id="path-7-outside-1_82_3716" maskUnits="userSpaceOnUse" x="19" y="15" width="41" height="33" fill="black">
<rect fill="white" x="19" y="15" width="41" height="33"/>
<path d="M57.5664 17.8906L52.9961 44.9609L41.9023 45.1953L39.5195 31.1719L37.1367 44.1797L26.043 44.5703L21.4336 17.8906L31.1211 17.0312L33.0742 33.2422L35.6914 17.0312H43.3086L46.3555 33.4375L47.918 17.0312L57.5664 17.8906Z"/>
</mask>
<path d="M57.5664 17.8906L52.9961 44.9609L41.9023 45.1953L39.5195 31.1719L37.1367 44.1797L26.043 44.5703L21.4336 17.8906L31.1211 17.0312L33.0742 33.2422L35.6914 17.0312H43.3086L46.3555 33.4375L47.918 17.0312L57.5664 17.8906Z" fill="white"/>
<path d="M57.5664 17.8906L59.5385 18.2236C59.6313 17.6737 59.4904 17.11 59.1496 16.6686C58.8089 16.2271 58.2993 15.948 57.7438 15.8985L57.5664 17.8906ZM52.9961 44.9609L53.0383 46.9605C53.9983 46.9402 54.8083 46.2406 54.9682 45.2939L52.9961 44.9609ZM41.9023 45.1953L39.9306 45.5303C40.0967 46.5076 40.9535 47.2158 41.9446 47.1949L41.9023 45.1953ZM39.5195 31.1719L41.4913 30.8368C41.3287 29.8801 40.5028 29.1782 39.5324 29.1719C38.562 29.1657 37.7271 29.857 37.5523 30.8115L39.5195 31.1719ZM37.1367 44.1797L37.2071 46.1784C38.1456 46.1454 38.9348 45.4638 39.104 44.5401L37.1367 44.1797ZM26.043 44.5703L24.0722 44.9108C24.2424 45.8961 25.1141 46.6043 26.1133 46.5691L26.043 44.5703ZM21.4336 17.8906L21.2569 15.8984C20.6999 15.9479 20.1891 16.2281 19.8483 16.6713C19.5074 17.1145 19.3676 17.6802 19.4628 18.2311L21.4336 17.8906ZM31.1211 17.0312L33.1067 16.792C32.9775 15.7197 32.0202 14.9436 30.9444 15.0391L31.1211 17.0312ZM33.0742 33.2422L31.0886 33.4814C31.2078 34.471 32.0375 35.2218 33.0341 35.2418C34.0306 35.2618 34.8898 34.545 35.0487 33.561L33.0742 33.2422ZM35.6914 17.0312V15.0312C34.7099 15.0312 33.8734 15.7435 33.717 16.7125L35.6914 17.0312ZM43.3086 17.0312L45.275 16.6661C45.099 15.7185 44.2723 15.0312 43.3086 15.0312V17.0312ZM46.3555 33.4375L44.3891 33.8027C44.5712 34.7832 45.4478 35.4797 46.4441 35.4355C47.4404 35.3913 48.2519 34.6199 48.3465 33.6271L46.3555 33.4375ZM47.918 17.0312L48.0954 15.0391C46.9999 14.9416 46.0312 15.7468 45.927 16.8416L47.918 17.0312ZM55.5943 17.5577L51.024 44.628L54.9682 45.2939L59.5385 18.2236L55.5943 17.5577ZM52.9538 42.9614L41.8601 43.1958L41.9446 47.1949L53.0383 46.9605L52.9538 42.9614ZM43.8741 44.8603L41.4913 30.8368L37.5478 31.5069L39.9306 45.5303L43.8741 44.8603ZM37.5523 30.8115L35.1695 43.8193L39.104 44.5401L41.4868 31.5322L37.5523 30.8115ZM37.0663 42.1809L25.9726 42.5716L26.1133 46.5691L37.2071 46.1784L37.0663 42.1809ZM28.0138 44.2298L23.4044 17.5501L19.4628 18.2311L24.0722 44.9108L28.0138 44.2298ZM21.6103 19.8828L31.2978 19.0234L30.9444 15.0391L21.2569 15.8984L21.6103 19.8828ZM29.1355 17.2705L31.0886 33.4814L35.0599 33.003L33.1067 16.792L29.1355 17.2705ZM35.0487 33.561L37.6658 17.35L33.717 16.7125L31.0998 32.9234L35.0487 33.561ZM35.6914 19.0312H43.3086V15.0312H35.6914V19.0312ZM41.3422 17.3964L44.3891 33.8027L48.3218 33.0723L45.275 16.6661L41.3422 17.3964ZM48.3465 33.6271L49.909 17.2209L45.927 16.8416L44.3645 33.2479L48.3465 33.6271ZM47.7405 19.0234L57.389 19.8827L57.7438 15.8985L48.0954 15.0391L47.7405 19.0234Z" fill="#4CC4C4" mask="url(#path-7-outside-1_82_3716)"/>
</svg>
