<svg width="60" height="56" viewBox="0 0 60 56" fill="none" xmlns="http://www.w3.org/2000/svg">
<rect x="1" y="1" width="15" height="15" rx="1" stroke="#DC7700" stroke-width="2" stroke-linejoin="round"/>
<rect x="19" y="1" width="15" height="15" rx="1" stroke="#DC7700" stroke-width="2" stroke-linejoin="round"/>
<rect x="37" y="1" width="15" height="15" rx="1" stroke="#DC7700" stroke-width="2" stroke-linejoin="round"/>
<rect x="1" y="19" width="15" height="15" rx="1" stroke="#DC7700" stroke-width="2" stroke-linejoin="round"/>
<rect x="19" y="19" width="15" height="15" rx="1" stroke="#DC7700" stroke-width="2" stroke-linejoin="round"/>
<rect x="37" y="19" width="15" height="15" rx="1" stroke="#DC7700" stroke-width="2" stroke-linejoin="round"/>
<rect x="1" y="37" width="15" height="15" rx="1" stroke="#DC7700" stroke-width="2" stroke-linejoin="round"/>
<rect x="19" y="37" width="15" height="15" rx="1" stroke="#DC7700" stroke-width="2" stroke-linejoin="round"/>
<rect x="37" y="37" width="15" height="15" rx="1" stroke="#DC7700" stroke-width="2" stroke-linejoin="round"/>
<mask id="path-10-outside-1_82_3702" maskUnits="userSpaceOnUse" x="32" y="13" width="30" height="33" fill="black">
<rect fill="white" x="32" y="13" width="30" height="33"/>
<path d="M59.7344 16.6172L52.1172 29.8594L58.6016 41.3828L50.4375 43.9219L46.9219 35.9531L42.7812 43.9609L34.3438 40.9141L41.5312 29.5859L34.9688 17.6719L43.9141 15.5234L47.1172 23.375L50.5156 15.5234L59.7344 16.6172Z"/>
</mask>
<path d="M59.7344 16.6172L52.1172 29.8594L58.6016 41.3828L50.4375 43.9219L46.9219 35.9531L42.7812 43.9609L34.3438 40.9141L41.5312 29.5859L34.9688 17.6719L43.9141 15.5234L47.1172 23.375L50.5156 15.5234L59.7344 16.6172Z" fill="white"/>
<path d="M59.7344 16.6172L61.468 17.6144C61.8031 17.032 61.8232 16.3202 61.5217 15.7197C61.2202 15.1192 60.6373 14.7103 59.97 14.6311L59.7344 16.6172ZM52.1172 29.8594L50.3835 28.8621C50.0318 29.4737 50.0282 30.2253 50.3742 30.8402L52.1172 29.8594ZM58.6016 41.3828L59.1955 43.2926C59.7722 43.1132 60.237 42.6829 60.4601 42.1216C60.6832 41.5604 60.6407 40.9284 60.3446 40.402L58.6016 41.3828ZM50.4375 43.9219L48.6077 44.7292C49.018 45.6592 50.0607 46.1335 51.0314 45.8316L50.4375 43.9219ZM46.9219 35.9531L48.7517 35.1458C48.4409 34.4413 47.7532 33.9778 46.9836 33.9541C46.2139 33.9303 45.499 34.3505 45.1453 35.0345L46.9219 35.9531ZM42.7812 43.9609L42.102 45.842C43.0461 46.183 44.0967 45.7712 44.5578 44.8795L42.7812 43.9609ZM34.3438 40.9141L32.655 39.8426C32.33 40.3549 32.255 40.987 32.4513 41.5611C32.6476 42.1352 33.0938 42.5891 33.6645 42.7952L34.3438 40.9141ZM41.5312 29.5859L43.22 30.6574C43.6111 30.041 43.6353 29.2604 43.2831 28.621L41.5312 29.5859ZM34.9688 17.6719L34.5017 15.7272C33.8951 15.8729 33.3912 16.2933 33.1392 16.864C32.8872 17.4347 32.9159 18.0904 33.2169 18.6368L34.9688 17.6719ZM43.9141 15.5234L45.7659 14.768C45.3927 13.8532 44.4076 13.348 43.447 13.5787L43.9141 15.5234ZM47.1172 23.375L45.2654 24.1305C45.5695 24.8759 46.291 25.3664 47.096 25.3749C47.9011 25.3834 48.6328 24.9083 48.9526 24.1694L47.1172 23.375ZM50.5156 15.5234L50.7513 13.5374C49.8734 13.4332 49.0313 13.9177 48.6802 14.729L50.5156 15.5234ZM58.0007 15.62L50.3835 28.8621L53.8508 30.8566L61.468 17.6144L58.0007 15.62ZM50.3742 30.8402L56.8586 42.3636L60.3446 40.402L53.8602 28.8786L50.3742 30.8402ZM58.0076 39.473L49.8436 42.0121L51.0314 45.8316L59.1955 43.2926L58.0076 39.473ZM52.2673 43.1146L48.7517 35.1458L45.092 36.7604L48.6077 44.7292L52.2673 43.1146ZM45.1453 35.0345L41.0047 43.0423L44.5578 44.8795L48.6984 36.8717L45.1453 35.0345ZM43.4605 42.0798L35.023 39.033L33.6645 42.7952L42.102 45.842L43.4605 42.0798ZM36.0325 41.9856L43.22 30.6574L39.8425 28.5144L32.655 39.8426L36.0325 41.9856ZM43.2831 28.621L36.7206 16.7069L33.2169 18.6368L39.7794 30.5509L43.2831 28.621ZM35.4358 19.6166L44.3811 17.4681L43.447 13.5787L34.5017 15.7272L35.4358 19.6166ZM42.0622 16.2789L45.2654 24.1305L48.969 22.6195L45.7659 14.768L42.0622 16.2789ZM48.9526 24.1694L52.3511 16.3179L48.6802 14.729L45.2817 22.5806L48.9526 24.1694ZM50.28 17.5095L59.4987 18.6033L59.97 14.6311L50.7513 13.5374L50.28 17.5095Z" fill="#74A94B" mask="url(#path-10-outside-1_82_3702)"/>
</svg>
