<svg width="41" height="41" viewBox="0 0 41 41" fill="none" xmlns="http://www.w3.org/2000/svg">
<rect x="41" y="4" width="5" height="24" rx="1" transform="rotate(90 41 4)" fill="#D9D9D9"/>
<rect x="24" y="32" width="5" height="24" rx="1" transform="rotate(90 24 32)" fill="#D9D9D9"/>
<rect x="41" y="18" width="5" height="41" rx="1" transform="rotate(90 41 18)" fill="#D9D9D9"/>
<path d="M39 34C39 36.7614 36.7614 39 34 39C31.2386 39 29 36.7614 29 34C29 31.2386 31.2386 29 34 29C36.7614 29 39 31.2386 39 34Z" stroke="#D9D9D9" stroke-width="4"/>
<path d="M12 7C12 9.76142 9.76142 12 7 12C4.23858 12 2 9.76142 2 7C2 4.23858 4.23858 2 7 2C9.76142 2 12 4.23858 12 7Z" stroke="#D9D9D9" stroke-width="4"/>
</svg>
