<svg width="123" height="10" viewBox="0 0 123 10" fill="none" xmlns="http://www.w3.org/2000/svg">
<path d="M2.48828 1.1084L0.752837 8.9179" stroke="#DC7700" stroke-linecap="round"/>
<path d="M8.48828 1.1084L6.75284 8.9179" stroke="#DC7700" stroke-linecap="round"/>
<path d="M5.48828 1.1084L3.75284 8.9179" stroke="#DC7700" stroke-linecap="round"/>
<path d="M11.4883 1.1084L9.75284 8.9179" stroke="#DC7700" stroke-linecap="round"/>
<path d="M17.4883 1.1084L15.7528 8.9179" stroke="#DC7700" stroke-linecap="round"/>
<path d="M14.4883 1.1084L12.7528 8.9179" stroke="#DC7700" stroke-linecap="round"/>
<path d="M2.48828 1.1084L0.752837 8.9179" stroke="#DC7700" stroke-linecap="round"/>
<path d="M8.48828 1.1084L6.75284 8.9179" stroke="#DC7700" stroke-linecap="round"/>
<path d="M5.48828 1.1084L3.75284 8.9179" stroke="#DC7700" stroke-linecap="round"/>
<path d="M11.4883 1.1084L9.75284 8.9179" stroke="#DC7700" stroke-linecap="round"/>
<path d="M17.4883 1.1084L15.7528 8.9179" stroke="#DC7700" stroke-linecap="round"/>
<path d="M14.4883 1.1084L12.7528 8.9179" stroke="#DC7700" stroke-linecap="round"/>
<path d="M20.4883 1.1084L18.7528 8.9179" stroke="#DC7700" stroke-linecap="round"/>
<path d="M26.4883 1.1084L24.7528 8.9179" stroke="#DC7700" stroke-linecap="round"/>
<path d="M23.4883 1.1084L21.7528 8.9179" stroke="#DC7700" stroke-linecap="round"/>
<path d="M29.4883 1.1084L27.7528 8.9179" stroke="#DC7700" stroke-linecap="round"/>
<path d="M35.4883 1.1084L33.7528 8.9179" stroke="#DC7700" stroke-linecap="round"/>
<path d="M32.4883 1.1084L30.7528 8.9179" stroke="#DC7700" stroke-linecap="round"/>
<path d="M38.4883 1.1084L36.7528 8.9179" stroke="#DC7700" stroke-linecap="round"/>
<path d="M44.4883 1.1084L42.7528 8.9179" stroke="#DC7700" stroke-linecap="round"/>
<path d="M41.4883 1.1084L39.7528 8.9179" stroke="#DC7700" stroke-linecap="round"/>
<path d="M47.4883 1.1084L45.7528 8.9179" stroke="#DC7700" stroke-linecap="round"/>
<path d="M53.4883 1.1084L51.7528 8.9179" stroke="#DC7700" stroke-linecap="round"/>
<path d="M50.4883 1.1084L48.7528 8.9179" stroke="#DC7700" stroke-linecap="round"/>
<path d="M56.4883 1.1084L54.7528 8.9179" stroke="#DC7700" stroke-linecap="round"/>
<path d="M62.4883 1.1084L60.7528 8.9179" stroke="#DC7700" stroke-linecap="round"/>
<path d="M59.4883 1.1084L57.7528 8.9179" stroke="#DC7700" stroke-linecap="round"/>
<path d="M65.4883 1.1084L63.7528 8.9179" stroke="#DC7700" stroke-linecap="round"/>
<path d="M71.4883 1.1084L69.7528 8.9179" stroke="#DC7700" stroke-linecap="round"/>
<path d="M68.4883 1.1084L66.7528 8.9179" stroke="#DC7700" stroke-linecap="round"/>
<path d="M62.4883 1.1084L60.7528 8.9179" stroke="#DC7700" stroke-linecap="round"/>
<path d="M68.4883 1.1084L66.7528 8.9179" stroke="#DC7700" stroke-linecap="round"/>
<path d="M65.4883 1.1084L63.7528 8.9179" stroke="#DC7700" stroke-linecap="round"/>
<path d="M71.4883 1.1084L69.7528 8.9179" stroke="#DC7700" stroke-linecap="round"/>
<path d="M77.4883 1.1084L75.7528 8.9179" stroke="#DC7700" stroke-linecap="round"/>
<path d="M74.4883 1.1084L72.7528 8.9179" stroke="#DC7700" stroke-linecap="round"/>
<path d="M80.4883 1.1084L78.7528 8.9179" stroke="#DC7700" stroke-linecap="round"/>
<path d="M86.4883 1.1084L84.7528 8.9179" stroke="#DC7700" stroke-linecap="round"/>
<path d="M83.4883 1.1084L81.7528 8.9179" stroke="#DC7700" stroke-linecap="round"/>
<path d="M89.4883 1.1084L87.7528 8.9179" stroke="#DC7700" stroke-linecap="round"/>
<path d="M95.4883 1.1084L93.7528 8.9179" stroke="#DC7700" stroke-linecap="round"/>
<path d="M92.4883 1.1084L90.7528 8.9179" stroke="#DC7700" stroke-linecap="round"/>
<path d="M98.4883 1.1084L96.7528 8.9179" stroke="#DC7700" stroke-linecap="round"/>
<path d="M104.488 1.1084L102.753 8.9179" stroke="#DC7700" stroke-linecap="round"/>
<path d="M101.488 1.1084L99.7528 8.9179" stroke="#DC7700" stroke-linecap="round"/>
<path d="M107.488 1.1084L105.753 8.9179" stroke="#DC7700" stroke-linecap="round"/>
<path d="M113.488 1.1084L111.753 8.9179" stroke="#DC7700" stroke-linecap="round"/>
<path d="M110.488 1.1084L108.753 8.9179" stroke="#DC7700" stroke-linecap="round"/>
<path d="M116.488 1.1084L114.753 8.9179" stroke="#DC7700" stroke-linecap="round"/>
<path d="M122.488 1.1084L120.753 8.9179" stroke="#DC7700" stroke-linecap="round"/>
<path d="M119.488 1.1084L117.753 8.9179" stroke="#DC7700" stroke-linecap="round"/>
</svg>
