<svg width="42" height="31" viewBox="0 0 42 31" fill="none" xmlns="http://www.w3.org/2000/svg">
<path d="M32 16C32.5523 16 33 15.5523 33 15C33 14.4477 32.5523 14 32 14L32 16ZM8.29289 14.2929C7.90237 14.6834 7.90237 15.3166 8.29289 15.7071L14.6569 22.0711C15.0474 22.4616 15.6805 22.4616 16.0711 22.0711C16.4616 21.6805 16.4616 21.0474 16.0711 20.6569L10.4142 15L16.0711 9.34314C16.4616 8.95262 16.4616 8.31946 16.0711 7.92893C15.6805 7.53841 15.0474 7.53841 14.6569 7.92893L8.29289 14.2929ZM32 14L9 14L9 16L32 16L32 14Z" fill="#DC7700"/>
<circle cx="6.5085" cy="5.67797" r="4.59322" transform="rotate(-90 6.5085 5.67797)" stroke="#3C8801" stroke-width="2"/>
<path d="M11.5933 24.4915C11.5933 24.4915 22.2712 24.4915 28.1187 24.4915C36.2543 24.4915 36.2543 10.5085 36.2543 10.5085" stroke="#DC7700" stroke-width="2"/>
<line x1="11.0002" y1="5" x2="32.0002" y2="5" stroke="#3C8801" stroke-width="2"/>
<circle cx="35.4916" cy="5.67797" r="4.59322" transform="rotate(-90 35.4916 5.67797)" stroke="#03AEAE" stroke-width="2"/>
<circle cx="6.5085" cy="24.4915" r="4.59322" transform="rotate(-90 6.5085 24.4915)" stroke="#DC7700" stroke-width="2"/>
</svg>
