<svg width="59" height="48" viewBox="0 0 59 48" fill="none" xmlns="http://www.w3.org/2000/svg">
<rect x="1" y="8" width="56" height="35" rx="4" stroke="#DC7700" stroke-width="2"/>
<path d="M15 5L7 35.0863C7 35.0863 7.72727 39 15.0001 39C21.5455 39 23 35.0863 23 35.0863L15 5Z" stroke="#74A94B" stroke-width="3" stroke-linecap="round" stroke-linejoin="round"/>
<path d="M12 30.5714C16.352 27.7254 20.4267 29.3856 21.92 30.5714C23.52 31.6495 27.616 33.1587 31.2 30.5714C34.784 27.9841 39.52 29.4934 41.44 30.5714C42.72 31.4339 46.624 32.6413 52 30.5714" stroke="#4CC4C4" stroke-width="3" stroke-linecap="round" stroke-linejoin="round"/>
<circle cx="38.5" cy="8.5" r="7" fill="white" stroke="#DC7700" stroke-width="3"/>
<path d="M30.4512 17.0889L24.0682 24.1102" stroke="#DC7700" stroke-width="2" stroke-linecap="round"/>
<path d="M35.7305 20.4894L35.085 24.9575" stroke="#DC7700" stroke-width="2" stroke-linecap="round"/>
<path d="M27.3301 11.5532L22.9574 12.6756" stroke="#DC7700" stroke-width="2" stroke-linecap="round"/>
<mask id="path-8-outside-1_82_3727" maskUnits="userSpaceOnUse" x="32" y="30" width="27" height="19" fill="black">
<rect fill="white" x="32" y="30" width="27" height="19"/>
<path d="M35.1612 35.2727H37.5817V44.4318C37.5817 45.1061 37.4491 45.6515 37.1839 46.0682C36.9188 46.4848 36.5381 46.7898 36.0419 46.983C35.5495 47.1761 34.9605 47.2727 34.2749 47.2727C34.1915 47.2727 34.112 47.2708 34.0362 47.267C33.9567 47.267 33.8733 47.2652 33.7862 47.2614V45.3693C33.8506 45.3731 33.9074 45.375 33.9567 45.375C34.0021 45.3788 34.0514 45.3807 34.1044 45.3807C34.4946 45.3807 34.7673 45.2973 34.9226 45.1307C35.0817 44.9678 35.1612 44.7216 35.1612 44.392V35.2727ZM36.3658 34.1477C36.0097 34.1477 35.7029 34.0284 35.4453 33.7898C35.1877 33.5473 35.0589 33.2576 35.0589 32.9205C35.0589 32.5871 35.1877 32.3011 35.4453 32.0625C35.7029 31.8201 36.0097 31.6989 36.3658 31.6989C36.7294 31.6989 37.0381 31.8201 37.2919 32.0625C37.5495 32.3011 37.6783 32.5871 37.6783 32.9205C37.6783 33.2576 37.5495 33.5473 37.2919 33.7898C37.0381 34.0284 36.7294 34.1477 36.3658 34.1477ZM39.5206 47.2727V35.2727H41.907V36.7386H42.0149C42.121 36.5038 42.2744 36.2652 42.4751 36.0227C42.6797 35.7765 42.9448 35.572 43.2706 35.4091C43.6001 35.2424 44.0092 35.1591 44.4979 35.1591C45.1342 35.1591 45.7214 35.3258 46.2592 35.6591C46.7971 35.9886 47.227 36.4867 47.549 37.1534C47.871 37.8163 48.032 38.6477 48.032 39.6477C48.032 40.6212 47.8748 41.4432 47.5604 42.1136C47.2498 42.7803 46.8255 43.286 46.2876 43.6307C45.7536 43.9716 45.1551 44.142 44.4922 44.142C44.0225 44.142 43.6229 44.0644 43.2933 43.9091C42.9676 43.7538 42.7005 43.5587 42.4922 43.3239C42.2839 43.0852 42.1248 42.8447 42.0149 42.6023H41.9411V47.2727H39.5206ZM41.8899 39.6364C41.8899 40.1553 41.9619 40.608 42.1058 40.9943C42.2498 41.3807 42.4581 41.6818 42.7308 41.8977C43.0036 42.1098 43.335 42.2159 43.7251 42.2159C44.1191 42.2159 44.4524 42.108 44.7251 41.892C44.9979 41.6723 45.2043 41.3693 45.3445 40.983C45.4884 40.5928 45.5604 40.1439 45.5604 39.6364C45.5604 39.1326 45.4903 38.6894 45.3501 38.3068C45.21 37.9242 45.0036 37.625 44.7308 37.4091C44.4581 37.1932 44.1229 37.0852 43.7251 37.0852C43.3312 37.0852 42.9979 37.1894 42.7251 37.3977C42.4562 37.6061 42.2498 37.9015 42.1058 38.2841C41.9619 38.6667 41.8899 39.1174 41.8899 39.6364ZM53.5774 47.4545C52.7933 47.4545 52.121 47.3466 51.5604 47.1307C51.0036 46.9186 50.5604 46.6288 50.2308 46.2614C49.9013 45.8939 49.6873 45.4811 49.5888 45.0227L51.8274 44.7216C51.8956 44.8958 52.0036 45.0587 52.1513 45.2102C52.299 45.3617 52.4941 45.483 52.7365 45.5739C52.9827 45.6686 53.282 45.7159 53.6342 45.7159C54.1607 45.7159 54.5945 45.5871 54.9354 45.3295C55.2801 45.0758 55.4524 44.6496 55.4524 44.0511V42.4545H55.3501C55.2441 42.697 55.085 42.9261 54.8729 43.142C54.6607 43.358 54.388 43.5341 54.0547 43.6705C53.7214 43.8068 53.3236 43.875 52.8615 43.875C52.2062 43.875 51.6096 43.7235 51.0717 43.4205C50.5376 43.1136 50.1115 42.6458 49.7933 42.017C49.4789 41.3845 49.3217 40.5852 49.3217 39.6193C49.3217 38.6307 49.4827 37.8049 49.8047 37.142C50.1267 36.4792 50.5547 35.983 51.0888 35.6534C51.6267 35.3239 52.2157 35.1591 52.8558 35.1591C53.3445 35.1591 53.7536 35.2424 54.0831 35.4091C54.4126 35.572 54.6778 35.7765 54.8786 36.0227C55.0831 36.2652 55.2403 36.5038 55.3501 36.7386H55.4411V35.2727H57.8445V44.0852C57.8445 44.8277 57.6626 45.4489 57.299 45.9489C56.9354 46.4489 56.4316 46.8239 55.7876 47.0739C55.1475 47.3277 54.4107 47.4545 53.5774 47.4545ZM53.6286 42.0568C54.0187 42.0568 54.3482 41.9602 54.6172 41.767C54.8899 41.5701 55.0982 41.2898 55.2422 40.9261C55.3899 40.5587 55.4638 40.1193 55.4638 39.608C55.4638 39.0966 55.3918 38.6534 55.2479 38.2784C55.1039 37.8996 54.8956 37.6061 54.6229 37.3977C54.3501 37.1894 54.0187 37.0852 53.6286 37.0852C53.2308 37.0852 52.8956 37.1932 52.6229 37.4091C52.3501 37.6212 52.1437 37.9167 52.0036 38.2955C51.8634 38.6742 51.7933 39.1117 51.7933 39.608C51.7933 40.1117 51.8634 40.5473 52.0036 40.9148C52.1475 41.2784 52.3539 41.5606 52.6229 41.7614C52.8956 41.9583 53.2308 42.0568 53.6286 42.0568Z"/>
</mask>
<path d="M35.1612 35.2727H37.5817V44.4318C37.5817 45.1061 37.4491 45.6515 37.1839 46.0682C36.9188 46.4848 36.5381 46.7898 36.0419 46.983C35.5495 47.1761 34.9605 47.2727 34.2749 47.2727C34.1915 47.2727 34.112 47.2708 34.0362 47.267C33.9567 47.267 33.8733 47.2652 33.7862 47.2614V45.3693C33.8506 45.3731 33.9074 45.375 33.9567 45.375C34.0021 45.3788 34.0514 45.3807 34.1044 45.3807C34.4946 45.3807 34.7673 45.2973 34.9226 45.1307C35.0817 44.9678 35.1612 44.7216 35.1612 44.392V35.2727ZM36.3658 34.1477C36.0097 34.1477 35.7029 34.0284 35.4453 33.7898C35.1877 33.5473 35.0589 33.2576 35.0589 32.9205C35.0589 32.5871 35.1877 32.3011 35.4453 32.0625C35.7029 31.8201 36.0097 31.6989 36.3658 31.6989C36.7294 31.6989 37.0381 31.8201 37.2919 32.0625C37.5495 32.3011 37.6783 32.5871 37.6783 32.9205C37.6783 33.2576 37.5495 33.5473 37.2919 33.7898C37.0381 34.0284 36.7294 34.1477 36.3658 34.1477ZM39.5206 47.2727V35.2727H41.907V36.7386H42.0149C42.121 36.5038 42.2744 36.2652 42.4751 36.0227C42.6797 35.7765 42.9448 35.572 43.2706 35.4091C43.6001 35.2424 44.0092 35.1591 44.4979 35.1591C45.1342 35.1591 45.7214 35.3258 46.2592 35.6591C46.7971 35.9886 47.227 36.4867 47.549 37.1534C47.871 37.8163 48.032 38.6477 48.032 39.6477C48.032 40.6212 47.8748 41.4432 47.5604 42.1136C47.2498 42.7803 46.8255 43.286 46.2876 43.6307C45.7536 43.9716 45.1551 44.142 44.4922 44.142C44.0225 44.142 43.6229 44.0644 43.2933 43.9091C42.9676 43.7538 42.7005 43.5587 42.4922 43.3239C42.2839 43.0852 42.1248 42.8447 42.0149 42.6023H41.9411V47.2727H39.5206ZM41.8899 39.6364C41.8899 40.1553 41.9619 40.608 42.1058 40.9943C42.2498 41.3807 42.4581 41.6818 42.7308 41.8977C43.0036 42.1098 43.335 42.2159 43.7251 42.2159C44.1191 42.2159 44.4524 42.108 44.7251 41.892C44.9979 41.6723 45.2043 41.3693 45.3445 40.983C45.4884 40.5928 45.5604 40.1439 45.5604 39.6364C45.5604 39.1326 45.4903 38.6894 45.3501 38.3068C45.21 37.9242 45.0036 37.625 44.7308 37.4091C44.4581 37.1932 44.1229 37.0852 43.7251 37.0852C43.3312 37.0852 42.9979 37.1894 42.7251 37.3977C42.4562 37.6061 42.2498 37.9015 42.1058 38.2841C41.9619 38.6667 41.8899 39.1174 41.8899 39.6364ZM53.5774 47.4545C52.7933 47.4545 52.121 47.3466 51.5604 47.1307C51.0036 46.9186 50.5604 46.6288 50.2308 46.2614C49.9013 45.8939 49.6873 45.4811 49.5888 45.0227L51.8274 44.7216C51.8956 44.8958 52.0036 45.0587 52.1513 45.2102C52.299 45.3617 52.4941 45.483 52.7365 45.5739C52.9827 45.6686 53.282 45.7159 53.6342 45.7159C54.1607 45.7159 54.5945 45.5871 54.9354 45.3295C55.2801 45.0758 55.4524 44.6496 55.4524 44.0511V42.4545H55.3501C55.2441 42.697 55.085 42.9261 54.8729 43.142C54.6607 43.358 54.388 43.5341 54.0547 43.6705C53.7214 43.8068 53.3236 43.875 52.8615 43.875C52.2062 43.875 51.6096 43.7235 51.0717 43.4205C50.5376 43.1136 50.1115 42.6458 49.7933 42.017C49.4789 41.3845 49.3217 40.5852 49.3217 39.6193C49.3217 38.6307 49.4827 37.8049 49.8047 37.142C50.1267 36.4792 50.5547 35.983 51.0888 35.6534C51.6267 35.3239 52.2157 35.1591 52.8558 35.1591C53.3445 35.1591 53.7536 35.2424 54.0831 35.4091C54.4126 35.572 54.6778 35.7765 54.8786 36.0227C55.0831 36.2652 55.2403 36.5038 55.3501 36.7386H55.4411V35.2727H57.8445V44.0852C57.8445 44.8277 57.6626 45.4489 57.299 45.9489C56.9354 46.4489 56.4316 46.8239 55.7876 47.0739C55.1475 47.3277 54.4107 47.4545 53.5774 47.4545ZM53.6286 42.0568C54.0187 42.0568 54.3482 41.9602 54.6172 41.767C54.8899 41.5701 55.0982 41.2898 55.2422 40.9261C55.3899 40.5587 55.4638 40.1193 55.4638 39.608C55.4638 39.0966 55.3918 38.6534 55.2479 38.2784C55.1039 37.8996 54.8956 37.6061 54.6229 37.3977C54.3501 37.1894 54.0187 37.0852 53.6286 37.0852C53.2308 37.0852 52.8956 37.1932 52.6229 37.4091C52.3501 37.6212 52.1437 37.9167 52.0036 38.2955C51.8634 38.6742 51.7933 39.1117 51.7933 39.608C51.7933 40.1117 51.8634 40.5473 52.0036 40.9148C52.1475 41.2784 52.3539 41.5606 52.6229 41.7614C52.8956 41.9583 53.2308 42.0568 53.6286 42.0568Z" fill="#FFFEFE"/>
<path d="M35.1612 35.2727V34.2727H34.1612V35.2727H35.1612ZM37.5817 35.2727H38.5817V34.2727H37.5817V35.2727ZM37.1839 46.0682L38.0276 46.6051H38.0276L37.1839 46.0682ZM36.0419 46.983L35.6791 46.0511L35.6767 46.052L36.0419 46.983ZM34.0362 47.267L34.0862 46.2683L34.0612 46.267H34.0362V47.267ZM33.7862 47.2614H32.7862V48.2188L33.7428 48.2604L33.7862 47.2614ZM33.7862 45.3693L33.8449 44.371L32.7862 44.3088V45.3693H33.7862ZM33.9567 45.375L34.0397 44.3785L33.9983 44.375H33.9567V45.375ZM34.9226 45.1307L34.2072 44.4319L34.199 44.4404L34.191 44.449L34.9226 45.1307ZM35.4453 33.7898L34.7599 34.518L34.7657 34.5233L35.4453 33.7898ZM35.4453 32.0625L36.125 32.7961L36.1307 32.7907L35.4453 32.0625ZM37.2919 32.0625L36.6012 32.7856L36.6067 32.7909L36.6123 32.7961L37.2919 32.0625ZM37.2919 33.7898L37.9769 34.5183L37.9773 34.518L37.2919 33.7898ZM35.1612 36.2727H37.5817V34.2727H35.1612V36.2727ZM36.5817 35.2727V44.4318H38.5817V35.2727H36.5817ZM36.5817 44.4318C36.5817 44.9831 36.4724 45.3237 36.3403 45.5313L38.0276 46.6051C38.4258 45.9794 38.5817 45.2291 38.5817 44.4318H36.5817ZM36.3403 45.5313C36.1984 45.7542 35.9935 45.9287 35.6791 46.0511L36.4047 47.9148C37.0827 47.6509 37.6392 47.2155 38.0276 46.6051L36.3403 45.5313ZM35.6767 46.052C35.3294 46.1883 34.8707 46.2727 34.2749 46.2727V48.2727C35.0502 48.2727 35.7695 48.164 36.4071 47.9139L35.6767 46.052ZM34.2749 46.2727C34.2066 46.2727 34.1438 46.2712 34.0862 46.2683L33.9863 48.2658C34.0802 48.2705 34.1765 48.2727 34.2749 48.2727V46.2727ZM34.0362 46.267C33.9725 46.267 33.9037 46.2655 33.8297 46.2623L33.7428 48.2604C33.843 48.2648 33.9409 48.267 34.0362 48.267V46.267ZM34.7862 47.2614V45.3693H32.7862V47.2614H34.7862ZM33.7275 46.3676C33.8058 46.3722 33.8829 46.375 33.9567 46.375V44.375C33.9319 44.375 33.8954 44.374 33.8449 44.371L33.7275 46.3676ZM33.8736 46.3715C33.9507 46.378 34.028 46.3807 34.1044 46.3807V44.3807C34.0748 44.3807 34.0536 44.3796 34.0397 44.3785L33.8736 46.3715ZM34.1044 46.3807C34.5853 46.3807 35.2119 46.287 35.6542 45.8124L34.191 44.449C34.2598 44.3751 34.3195 44.3587 34.3093 44.3618C34.3042 44.3634 34.2857 44.3684 34.2503 44.3729C34.215 44.3773 34.167 44.3807 34.1044 44.3807V46.3807ZM35.638 45.8294C36.0474 45.4102 36.1612 44.8661 36.1612 44.392H34.1612C34.1612 44.4346 34.1586 44.4656 34.1557 44.4867C34.1528 44.5078 34.1499 44.5168 34.15 44.5164C34.1502 44.5158 34.1536 44.5054 34.1632 44.489C34.173 44.4722 34.1875 44.4522 34.2072 44.4319L35.638 45.8294ZM36.1612 44.392V35.2727H34.1612V44.392H36.1612ZM36.3658 33.1477C36.2578 33.1477 36.1948 33.1209 36.1249 33.0562L34.7657 34.5233C35.211 34.9359 35.7616 35.1477 36.3658 35.1477V33.1477ZM36.1307 33.0616C36.0628 32.9977 36.0589 32.967 36.0589 32.9205H34.0589C34.0589 33.5482 34.3127 34.097 34.7599 34.518L36.1307 33.0616ZM36.0589 32.9205C36.0589 32.8863 36.0647 32.8725 36.0673 32.8666C36.0705 32.8595 36.0826 32.8352 36.1249 32.7961L34.7657 31.3289C34.3161 31.7454 34.0589 32.2924 34.0589 32.9205H36.0589ZM36.1307 32.7907C36.2014 32.7241 36.2626 32.6989 36.3658 32.6989V30.6989C35.7569 30.6989 35.2044 30.916 34.7599 31.3343L36.1307 32.7907ZM36.3658 32.6989C36.4824 32.6989 36.5407 32.7279 36.6012 32.7856L37.9826 31.3394C37.5355 30.9123 36.9764 30.6989 36.3658 30.6989V32.6989ZM36.6123 32.7961C36.6546 32.8352 36.6667 32.8595 36.6699 32.8666C36.6725 32.8725 36.6783 32.8863 36.6783 32.9205H38.6783C38.6783 32.2924 38.4211 31.7454 37.9715 31.3289L36.6123 32.7961ZM36.6783 32.9205C36.6783 32.967 36.6744 32.9977 36.6065 33.0616L37.9773 34.518C38.4245 34.097 38.6783 33.5482 38.6783 32.9205H36.6783ZM36.6069 33.0613C36.5473 33.1172 36.4872 33.1477 36.3658 33.1477V35.1477C36.9717 35.1477 37.5289 34.9396 37.9769 34.5183L36.6069 33.0613ZM39.5206 47.2727H38.5206V48.2727H39.5206V47.2727ZM39.5206 35.2727V34.2727H38.5206V35.2727H39.5206ZM41.907 35.2727H42.907V34.2727H41.907V35.2727ZM41.907 36.7386H40.907V37.7386H41.907V36.7386ZM42.0149 36.7386V37.7386H42.6606L42.9263 37.1502L42.0149 36.7386ZM42.4751 36.0227L41.706 35.3837L41.705 35.3849L42.4751 36.0227ZM43.2706 35.4091L43.7178 36.3035L43.7219 36.3015L43.2706 35.4091ZM46.2592 35.6591L45.7325 36.5091L45.7368 36.5118L46.2592 35.6591ZM47.549 37.1534L46.6485 37.5883L46.6495 37.5903L47.549 37.1534ZM47.5604 42.1136L46.655 41.6891L46.6539 41.6913L47.5604 42.1136ZM46.2876 43.6307L46.8257 44.4736L46.8272 44.4726L46.2876 43.6307ZM43.2933 43.9091L42.863 44.8118L42.867 44.8137L43.2933 43.9091ZM42.4922 43.3239L41.7388 43.9815L41.7441 43.9875L42.4922 43.3239ZM42.0149 42.6023L42.9258 42.1895L42.6597 41.6023H42.0149V42.6023ZM41.9411 42.6023V41.6023H40.9411V42.6023H41.9411ZM41.9411 47.2727V48.2727H42.9411V47.2727H41.9411ZM42.7308 41.8977L42.1101 42.6818L42.1169 42.6871L42.7308 41.8977ZM44.7251 41.892L45.3459 42.6761L45.3525 42.6708L44.7251 41.892ZM45.3445 40.983L44.4063 40.6368L44.4044 40.642L45.3445 40.983ZM45.3501 38.3068L46.2891 37.9628V37.9628L45.3501 38.3068ZM44.7308 37.4091L45.3515 36.625L45.3515 36.625L44.7308 37.4091ZM42.7251 37.3977L42.1181 36.603L42.1127 36.6072L42.7251 37.3977ZM42.1058 38.2841L41.1699 37.932V37.932L42.1058 38.2841ZM40.5206 47.2727V35.2727H38.5206V47.2727H40.5206ZM39.5206 36.2727H41.907V34.2727H39.5206V36.2727ZM40.907 35.2727V36.7386H42.907V35.2727H40.907ZM41.907 37.7386H42.0149V35.7386H41.907V37.7386ZM42.9263 37.1502C42.9885 37.0124 43.0894 36.8488 43.2453 36.6605L41.705 35.3849C41.4593 35.6815 41.2534 35.9952 41.1035 36.327L42.9263 37.1502ZM43.2443 36.6617C43.349 36.5358 43.4989 36.413 43.7178 36.3035L42.8234 34.5147C42.3908 34.731 42.0104 35.0173 41.706 35.3837L43.2443 36.6617ZM43.7219 36.3015C43.8738 36.2246 44.1174 36.1591 44.4979 36.1591V34.1591C43.901 34.1591 43.3265 34.2602 42.8193 34.5167L43.7219 36.3015ZM44.4979 36.1591C44.9492 36.1591 45.3537 36.2744 45.7325 36.5091L46.786 34.8091C46.089 34.3771 45.3192 34.1591 44.4979 34.1591V36.1591ZM45.7368 36.5118C46.0846 36.7248 46.3952 37.0637 46.6485 37.5883L48.4495 36.7185C48.0589 35.9097 47.5097 35.2524 46.7817 34.8064L45.7368 36.5118ZM46.6495 37.5903C46.8861 38.0774 47.032 38.7479 47.032 39.6477H49.032C49.032 38.5476 48.8559 37.5551 48.4485 36.7165L46.6495 37.5903ZM47.032 39.6477C47.032 40.5186 46.8907 41.1864 46.655 41.6891L48.4658 42.5382C48.8588 41.7 49.032 40.7238 49.032 39.6477H47.032ZM46.6539 41.6913C46.411 42.2127 46.1034 42.5611 45.7481 42.7887L46.8272 44.4726C47.5477 44.0109 48.0885 43.3479 48.4668 42.536L46.6539 41.6913ZM45.7496 42.7878C45.3838 43.0212 44.9737 43.142 44.4922 43.142V45.142C45.3365 45.142 46.1233 44.922 46.8257 44.4736L45.7496 42.7878ZM44.4922 43.142C44.1288 43.142 43.8831 43.0815 43.7196 43.0045L42.867 44.8137C43.3626 45.0472 43.9162 45.142 44.4922 45.142V43.142ZM43.7237 43.0064C43.5008 42.9002 43.3475 42.7811 43.2403 42.6602L41.7441 43.9875C42.0536 44.3363 42.4343 44.6074 42.863 44.8118L43.7237 43.0064ZM43.2455 42.6662C43.0895 42.4875 42.9885 42.3281 42.9258 42.1895L41.1041 43.015C41.261 43.3613 41.4782 43.6829 41.7389 43.9815L43.2455 42.6662ZM42.0149 41.6023H41.9411V43.6023H42.0149V41.6023ZM40.9411 42.6023V47.2727H42.9411V42.6023H40.9411ZM41.9411 46.2727H39.5206V48.2727H41.9411V46.2727ZM40.8899 39.6364C40.8899 40.2449 40.974 40.8207 41.1687 41.3434L43.0429 40.6452C42.9498 40.3952 42.8899 40.0657 42.8899 39.6364H40.8899ZM41.1687 41.3434C41.3645 41.8689 41.6696 42.333 42.1101 42.6818L43.3515 41.1137C43.2466 41.0306 43.135 40.8924 43.0429 40.6452L41.1687 41.3434ZM42.1169 42.6871C42.5876 43.0532 43.1428 43.2159 43.7251 43.2159V41.2159C43.5271 41.2159 43.4195 41.1665 43.3448 41.1084L42.1169 42.6871ZM43.7251 43.2159C44.3129 43.2159 44.8733 43.0502 45.3458 42.6761L44.1044 41.108C44.0316 41.1657 43.9252 41.2159 43.7251 41.2159V43.2159ZM45.3525 42.6708C45.7906 42.3179 46.093 41.8519 46.2845 41.324L44.4044 40.642C44.3156 40.8867 44.2052 41.0268 44.0978 41.1133L45.3525 42.6708ZM46.2826 41.3291C46.4754 40.8067 46.5604 40.2368 46.5604 39.6364H44.5604C44.5604 40.051 44.5014 40.3789 44.4063 40.6368L46.2826 41.3291ZM46.5604 39.6364C46.5604 39.042 46.4779 38.4782 46.2891 37.9628L44.4112 38.6508C44.5027 38.9006 44.5604 39.2232 44.5604 39.6364H46.5604ZM46.2891 37.9628C46.0965 37.4371 45.7921 36.9739 45.3515 36.625L44.1101 38.1931C44.215 38.2761 44.3235 38.4114 44.4112 38.6508L46.2891 37.9628ZM45.3515 36.625C44.8772 36.2496 44.3142 36.0852 43.7251 36.0852V38.0852C43.9315 38.0852 44.039 38.1368 44.1101 38.1931L45.3515 36.625ZM43.7251 36.0852C43.1457 36.0852 42.5903 36.2423 42.1181 36.6031L43.3322 38.1924C43.4054 38.1364 43.5167 38.0852 43.7251 38.0852V36.0852ZM42.1127 36.6072C41.6704 36.9499 41.3658 37.4113 41.1699 37.932L43.0418 38.6362C43.1337 38.3918 43.242 38.2623 43.3375 38.1883L42.1127 36.6072ZM41.1699 37.932C40.9739 38.4529 40.8899 39.0282 40.8899 39.6364H42.8899C42.8899 39.2067 42.9499 38.8805 43.0418 38.6362L41.1699 37.932ZM51.5604 47.1307L51.9198 46.1975L51.9164 46.1962L51.5604 47.1307ZM50.2308 46.2614L49.4864 46.9291L50.2308 46.2614ZM49.5888 45.0227L49.4555 44.0317L48.384 44.1758L48.6111 45.2328L49.5888 45.0227ZM51.8274 44.7216L52.7587 44.3572L52.4725 43.6258L51.6941 43.7305L51.8274 44.7216ZM52.1513 45.2102L52.8673 44.5121L52.1513 45.2102ZM52.7365 45.5739L53.0955 44.6405L53.0876 44.6375L52.7365 45.5739ZM54.9354 45.3295L54.3424 44.5242L54.3325 44.5317L54.9354 45.3295ZM55.4524 42.4545H56.4524V41.4545H55.4524V42.4545ZM55.3501 42.4545V41.4545H54.6961L54.434 42.0537L55.3501 42.4545ZM54.8729 43.142L55.5862 43.8429V43.8429L54.8729 43.142ZM51.0717 43.4205L50.5736 44.2876L50.5809 44.2917L51.0717 43.4205ZM49.7933 42.017L48.8978 42.4621L48.9011 42.4686L49.7933 42.017ZM49.8047 37.142L48.9052 36.7051L49.8047 37.142ZM51.0888 35.6534L50.5664 34.8007L50.5637 34.8024L51.0888 35.6534ZM54.0831 35.4091L53.6318 36.3015L53.64 36.3056L54.0831 35.4091ZM54.8786 36.0227L54.1035 36.6547L54.1088 36.6612L54.1143 36.6676L54.8786 36.0227ZM55.3501 36.7386L54.4443 37.1623L54.7139 37.7386H55.3501V36.7386ZM55.4411 36.7386V37.7386H56.4411V36.7386H55.4411ZM55.4411 35.2727V34.2727H54.4411V35.2727H55.4411ZM57.8445 35.2727H58.8445V34.2727H57.8445V35.2727ZM57.299 45.9489L56.4903 45.3607V45.3607L57.299 45.9489ZM55.7876 47.0739L55.4257 46.1416L55.4191 46.1443L55.7876 47.0739ZM54.6172 41.767L55.2006 42.5792L55.2027 42.5777L54.6172 41.767ZM55.2422 40.9261L54.3144 40.5531L54.3124 40.5581L55.2422 40.9261ZM55.2479 38.2784L54.3131 38.6336L54.3143 38.6368L55.2479 38.2784ZM52.6229 37.4091L53.2368 38.1985L53.2436 38.1931L52.6229 37.4091ZM52.0036 38.2955L52.9414 38.6425L52.0036 38.2955ZM52.0036 40.9148L51.0691 41.2712L51.0737 41.2828L52.0036 40.9148ZM52.6229 41.7614L52.0247 42.5627L52.031 42.5674L52.0374 42.572L52.6229 41.7614ZM53.5774 46.4545C52.8806 46.4545 52.3366 46.358 51.9198 46.1975L51.201 48.0639C51.9053 48.3351 52.706 48.4545 53.5774 48.4545V46.4545ZM51.9164 46.1962C51.4779 46.0292 51.1786 45.8203 50.9753 45.5937L49.4864 46.9291C49.9422 47.4372 50.5292 47.808 51.2044 48.0652L51.9164 46.1962ZM50.9753 45.5937C50.7556 45.3488 50.6264 45.0916 50.5665 44.8126L48.6111 45.2328C48.7481 45.8705 49.047 46.4391 49.4864 46.9291L50.9753 45.5937ZM49.7221 46.0138L51.9607 45.7127L51.6941 43.7305L49.4555 44.0317L49.7221 46.0138ZM50.8962 45.086C51.0191 45.4 51.2064 45.6736 51.4353 45.9083L52.8673 44.5121C52.8007 44.4438 52.7721 44.3916 52.7587 44.3572L50.8962 45.086ZM51.4353 45.9083C51.706 46.186 52.0354 46.379 52.3854 46.5102L53.0876 44.6375C52.9527 44.5869 52.892 44.5375 52.8673 44.5121L51.4353 45.9083ZM52.3775 46.5072C52.7696 46.658 53.198 46.7159 53.6342 46.7159V44.7159C53.366 44.7159 53.1958 44.6791 53.0955 44.6405L52.3775 46.5072ZM53.6342 46.7159C54.3267 46.7159 54.9866 46.5442 55.5382 46.1274L54.3325 44.5317C54.2023 44.6301 53.9947 44.7159 53.6342 44.7159V46.7159ZM55.5283 46.1348C56.2212 45.6246 56.4524 44.8322 56.4524 44.0511H54.4524C54.4524 44.2588 54.422 44.3807 54.3961 44.4447C54.374 44.4993 54.3547 44.5153 54.3425 44.5243L55.5283 46.1348ZM56.4524 44.0511V42.4545H54.4524V44.0511H56.4524ZM55.4524 41.4545H55.3501V43.4545H55.4524V41.4545ZM54.434 42.0537C54.3832 42.1698 54.2985 42.2998 54.1595 42.4412L55.5862 43.8429C55.8715 43.5525 56.105 43.2241 56.2663 42.8554L54.434 42.0537ZM54.1595 42.4412C54.0588 42.5437 53.9072 42.6504 53.6761 42.7449L54.4333 44.596C54.8689 44.4178 55.2626 44.1722 55.5862 43.8429L54.1595 42.4412ZM53.6761 42.7449C53.4917 42.8203 53.229 42.875 52.8615 42.875V44.875C53.4183 44.875 53.951 44.7933 54.4333 44.596L53.6761 42.7449ZM52.8615 42.875C52.3672 42.875 51.9414 42.7626 51.5626 42.5492L50.5809 44.2917C51.2778 44.6844 52.0452 44.875 52.8615 44.875V42.875ZM51.5699 42.5533C51.2283 42.3571 50.9288 42.0461 50.6856 41.5655L48.9011 42.4686C49.2942 43.2456 49.847 43.8701 50.5736 44.2876L51.5699 42.5533ZM50.6888 41.572C50.4636 41.1189 50.3217 40.4845 50.3217 39.6193H48.3217C48.3217 40.6859 48.4942 41.65 48.8978 42.4621L50.6888 41.572ZM50.3217 39.6193C50.3217 38.7328 50.4669 38.0674 50.7042 37.5789L48.9052 36.7051C48.4985 37.5424 48.3217 38.5285 48.3217 39.6193H50.3217ZM50.7042 37.5789C50.9579 37.0566 51.2678 36.718 51.6139 36.5044L50.5637 34.8024C49.8416 35.2479 49.2954 35.9017 48.9052 36.7051L50.7042 37.5789ZM51.6112 36.5061C51.9894 36.2744 52.3972 36.1591 52.8558 36.1591V34.1591C52.0342 34.1591 51.2639 34.3734 50.5664 34.8007L51.6112 36.5061ZM52.8558 36.1591C53.2363 36.1591 53.4799 36.2246 53.6318 36.3015L54.5344 34.5167C54.0272 34.2602 53.4526 34.1591 52.8558 34.1591V36.1591ZM53.64 36.3056C53.8613 36.4149 54.0064 36.5355 54.1035 36.6547L55.6536 35.3908C55.3492 35.0175 54.964 34.729 54.5262 34.5126L53.64 36.3056ZM54.1143 36.6676C54.2742 36.8572 54.3789 37.0225 54.4443 37.1623L56.256 36.3149C56.1017 35.9851 55.892 35.6731 55.6428 35.3779L54.1143 36.6676ZM55.3501 37.7386H55.4411V35.7386H55.3501V37.7386ZM56.4411 36.7386V35.2727H54.4411V36.7386H56.4411ZM55.4411 36.2727H57.8445V34.2727H55.4411V36.2727ZM56.8445 35.2727V44.0852H58.8445V35.2727H56.8445ZM56.8445 44.0852C56.8445 44.6598 56.7063 45.0637 56.4903 45.3607L58.1077 46.537C58.619 45.834 58.8445 44.9955 58.8445 44.0852H56.8445ZM56.4903 45.3607C56.2524 45.6877 55.9125 45.9527 55.4257 46.1417L56.1496 48.0061C56.9507 47.695 57.6183 47.21 58.1077 46.537L56.4903 45.3607ZM55.4191 46.1443C54.9181 46.3429 54.3104 46.4545 53.5774 46.4545V48.4545C54.5111 48.4545 55.3769 48.3124 56.1562 48.0035L55.4191 46.1443ZM53.6286 43.0568C54.1896 43.0568 54.7329 42.9152 55.2006 42.5792L54.0338 40.9549C53.9636 41.0053 53.8478 41.0568 53.6286 41.0568V43.0568ZM55.2027 42.5777C55.6538 42.2519 55.9695 41.8058 56.172 41.2942L54.3124 40.5581C54.227 40.7738 54.126 40.8883 54.0317 40.9564L55.2027 42.5777ZM56.17 41.2992C56.3771 40.7841 56.4638 40.2116 56.4638 39.608H54.4638C54.4638 40.027 54.4028 40.3333 54.3144 40.5531L56.17 41.2992ZM56.4638 39.608C56.4638 39.0061 56.3795 38.4359 56.1815 37.9201L54.3143 38.6368C54.4042 38.8709 54.4638 39.1871 54.4638 39.608H56.4638ZM56.1827 37.9232C55.9846 37.4021 55.6756 36.9435 55.2299 36.6031L54.0158 38.1924C54.1156 38.2686 54.2232 38.3971 54.3131 38.6336L56.1827 37.9232ZM55.2299 36.6031C54.7594 36.2436 54.2066 36.0852 53.6286 36.0852V38.0852C53.8308 38.0852 53.9409 38.1352 54.0158 38.1924L55.2299 36.6031ZM53.6286 36.0852C53.0395 36.0852 52.4765 36.2496 52.0022 36.625L53.2436 38.1931C53.3147 38.1368 53.4222 38.0852 53.6286 38.0852V36.0852ZM52.0089 36.6197C51.5658 36.9644 51.2594 37.4249 51.0657 37.9484L52.9414 38.6425C53.028 38.4084 53.1345 38.278 53.2368 38.1984L52.0089 36.6197ZM51.0657 37.9484C50.8762 38.4604 50.7933 39.0195 50.7933 39.608H52.7933C52.7933 39.204 52.8505 38.888 52.9414 38.6425L51.0657 37.9484ZM50.7933 39.608C50.7933 40.2009 50.8754 40.763 51.0692 41.2712L52.9379 40.5584C52.8514 40.3317 52.7933 40.0226 52.7933 39.608H50.7933ZM51.0737 41.2828C51.2745 41.7899 51.584 42.2338 52.0247 42.5627L53.2211 40.96C53.1238 40.8874 53.0205 40.7669 52.9334 40.5467L51.0737 41.2828ZM52.0374 42.572C52.5099 42.9133 53.06 43.0568 53.6286 43.0568V41.0568C53.4016 41.0568 53.2813 41.0034 53.2084 40.9507L52.0374 42.572Z" fill="#DC7700" mask="url(#path-8-outside-1_82_3727)"/>
</svg>
