<svg width="109" height="82" viewBox="0 0 109 82" fill="none" xmlns="http://www.w3.org/2000/svg">
<g clip-path="url(#clip0_337_61)">
<path d="M79.0244 56.2505C79.0244 52.0112 80.4375 48.1712 83.5498 45.0778C86.9333 41.7132 90.9988 40.3966 95.774 41.1524C102.172 42.1673 107.404 47.7536 108.647 54.3213C109.6 59.3652 108.674 64.0464 105.37 68.0205C101.965 72.1165 97.5586 73.8598 92.1926 73.0004C85.5902 71.9459 80.5776 66.1584 79.3899 60.0905C79.1462 58.8562 79.0671 57.628 79.0275 56.2505H79.0244Z" fill="#00417D"/>
<path d="M89.2781 74.1554C87.3443 73.68 85.4379 73.2167 83.5315 72.7382C80.0202 71.8575 76.5119 70.9676 73.0037 70.0807C69.9187 69.3005 66.8337 68.5111 63.7457 67.734C61.6322 67.2007 59.5187 66.6826 57.4052 66.1492C57.0337 66.0547 56.58 66.0212 56.3241 65.7835C55.0177 64.5888 53.3945 64.6863 51.82 64.6132C51.3175 64.5919 51.2079 64.409 51.2719 63.9823C51.5794 61.9343 51.887 59.8894 52.1946 57.8413C52.2525 57.4512 52.5266 57.3171 52.8737 57.2623C57.3322 56.54 61.7906 55.8299 66.246 55.0893C69.4802 54.5529 72.7082 53.9861 75.9333 53.4162C77.7636 53.0901 77.6753 53.0657 77.5443 54.9247C77.2093 59.7095 78.4579 64.0677 81.3358 67.923C83.3061 70.5622 85.8064 72.5371 88.8883 73.7501C89.0375 73.808 89.2599 73.8019 89.2751 74.1523L89.2781 74.1554Z" fill="#00417D"/>
<path d="M35.3842 53.9831C35.2137 52.0539 35.2137 52.0448 37.117 52.0234C40.7075 51.9808 44.298 51.9655 47.8855 51.8924C48.589 51.8771 48.7778 52.0813 48.796 52.7823C48.8935 56.5797 49.0275 60.374 49.2072 64.1683C49.2346 64.7352 49.0153 64.8357 48.5951 64.8662C47.4439 64.9455 46.2897 65.0247 45.1355 65.0856C42.1754 65.238 39.2153 65.3599 36.2613 65.5489C35.6644 65.5885 35.704 65.2685 35.6888 64.9211C35.5822 62.55 35.4664 60.1789 35.3934 57.8079C35.3538 56.5339 35.3873 55.26 35.3873 53.9831H35.3842Z" fill="#00417D"/>
<path d="M60.3014 0.707137C58.1362 2.62715 56.0318 4.49232 53.9305 6.35748C46.2287 13.1964 38.5239 20.0353 30.8222 26.8773C26.2846 30.9063 21.7531 34.9414 17.2033 38.9551C16.9079 39.2172 16.5242 39.8968 16.18 39.5098C15.8511 39.138 16.582 38.8728 16.8713 38.6168C24.9994 31.3665 33.1397 24.1314 41.28 16.8962C47.5169 11.3526 53.7569 5.8089 59.9938 0.262181C60.4415 -0.137061 61.8393 -0.0700129 62.2291 0.390182C62.4027 0.594374 62.3144 0.838186 62.2413 1.06676C60.5298 6.67748 58.8183 12.2882 57.1099 17.902C55.2644 23.9637 53.425 30.0286 51.5764 36.0903C50.1573 40.7471 48.7351 45.4009 47.3068 50.0546C47.1545 50.5545 45.9212 50.8958 45.5009 50.5697C45.2725 50.3929 45.44 50.2101 45.4948 50.0181C46.4176 46.9369 47.3251 43.8527 48.2539 40.7746C50.2121 34.28 52.1764 27.7855 54.1437 21.294C55.9892 15.1957 57.8408 9.10036 59.6954 3.00506C59.738 2.86487 59.8263 2.73992 59.7045 2.51439C58.6813 3.43173 57.6641 4.33384 56.6591 5.25118C49.4386 11.825 42.218 18.4018 34.9974 24.9756C29.5036 29.9798 24.0127 34.9871 18.5098 39.9791C18.2357 40.229 17.8428 40.8325 17.6053 40.5582C17.2581 40.162 17.9159 39.8999 18.1839 39.6561C26.9942 31.6164 35.8136 23.5889 44.6391 15.5675C49.6761 10.9869 54.7192 6.41233 59.7593 1.83781C60.07 1.55743 60.3258 1.25571 60.2953 0.707137H60.3014Z" fill="#00417D"/>
<path d="M79.2984 48.2626C78.7777 49.6188 78.2021 50.8714 77.9615 52.2337C77.9037 52.5658 77.593 52.4531 77.3768 52.4897C73.7163 53.1327 70.0557 53.7636 66.3982 54.4158C63.3498 54.9582 60.3044 55.5221 57.256 56.0798C55.8369 56.3388 54.4177 56.6131 52.9956 56.863C52.7915 56.8996 52.4718 57.0367 52.3895 56.7228C52.3103 56.4242 52.5357 56.2626 52.8342 56.1743C56.3881 55.1167 59.936 54.044 63.4869 52.9834C67.6347 51.743 71.7825 50.5087 75.9303 49.2713C77.0205 48.9452 78.1077 48.6191 79.2984 48.2595V48.2626Z" fill="#00417D"/>
<path d="M5.85322 48.4332C5.21369 49.3079 4.57416 50.1826 3.92854 51.0511C3.69101 51.3681 3.5296 51.682 3.55396 52.1056C3.758 55.6043 3.85546 59.1061 3.87982 62.6109C3.88286 63.26 3.94682 63.9122 3.99554 64.7717C3.25552 64.0859 2.76217 63.3758 2.48808 62.6322C1.50138 59.9838 0.475091 57.3415 0.0517846 54.5133C-0.137029 53.2485 0.243643 52.2214 1.09939 51.3651C2.42413 50.0363 4.0534 49.1464 5.85627 48.4302L5.85322 48.4332Z" fill="#00417D"/>
<path d="M52.3195 55.3698C63.3437 50.713 74.1609 46.1445 85.0907 41.5273C83.836 42.9384 82.0362 44.0904 79.8009 44.9681C71.0059 48.4242 62.2108 51.8863 53.4158 55.3423C53.1569 55.4429 52.9072 55.6258 52.3195 55.3698Z" fill="#00417D"/>
<path d="M49.8406 52.2091C49.8527 52.8034 49.8588 53.3947 49.8649 53.989C50.1664 54.2175 50.1603 54.0042 50.2151 53.7756C51.0222 50.3348 51.8475 46.8971 52.6514 43.4563C53.5742 39.5004 54.4756 35.5355 55.3953 31.5796C56.5952 26.4138 57.8103 21.2481 59.0102 16.0823C59.0893 15.7379 59.1107 15.3814 59.1594 15.0278C58.8457 15.2716 58.8549 15.6556 58.7635 15.9878C57.4205 20.9067 56.0957 25.8287 54.7497 30.7476C53.0138 37.0837 51.2506 43.4136 49.5451 49.7558C49.3807 50.3653 48.6803 51.179 49.7979 51.6971C49.8741 51.7337 49.8375 52.0324 49.8406 52.2091Z" fill="#00417D"/>
<path d="M69.3462 46.6168C68.3168 47.2324 67.5372 46.952 66.986 45.8549C66.316 44.52 66.8155 43.0663 68.2407 42.4324C67.7656 43.2095 67.4702 43.9806 67.723 44.8034C67.9666 45.5897 68.4935 46.1932 69.3431 46.6168H69.3462Z" fill="#00417D"/>
<path d="M57.8529 72.8479C55.9861 73.1496 54.1101 73.4087 52.2342 73.6433C50.9034 73.8109 50.9978 73.7622 50.7054 72.4304C50.4922 71.4643 50.9643 71.4399 51.6343 71.3698C53.6077 71.1656 55.5993 71.1564 57.5606 70.8151C57.8103 70.7724 58.3128 71.0193 58.1666 70.3823C58.0722 69.9679 57.9534 69.7545 57.4083 69.8185C55.3496 70.0654 53.2818 70.233 51.217 70.4189C50.8455 70.4524 50.4283 70.5713 50.2577 70.0532C50.0781 69.4985 49.8923 68.9438 49.6791 68.3008C51.9479 68.1789 54.165 68.0661 56.379 67.9351C56.6561 67.9198 57.1372 68.1027 57.1281 67.6151C57.122 67.1823 56.6835 67.2372 56.3576 67.2433C56.0896 67.2494 55.8247 67.2555 55.5567 67.2615C52.5753 67.3255 49.6456 67.9656 46.6612 68.0174C45.6562 68.0356 44.6512 68.1911 43.6462 68.249C41.012 68.4014 38.3717 68.5172 35.7374 68.6818C35.1466 68.7183 35.104 68.4715 35.0492 67.9747C34.8329 66.0212 34.8999 64.0585 34.7994 62.0988C34.6137 58.6001 34.501 55.0984 34.3548 51.5966C34.3426 51.3163 34.3274 51.0328 34.7263 51.0389C35.4968 51.0572 35.4816 50.5696 35.3994 50.021C35.2654 49.1372 34.9395 48.1284 35.3141 47.3878C35.847 46.3394 35.4694 45.352 35.5882 44.3493C35.6308 43.9806 35.4786 43.7977 35.0887 43.8069C34.163 43.8312 33.1854 43.5143 32.3784 44.2701C32.1378 44.4956 31.8089 44.3798 31.5196 44.3768C27.8073 44.3158 24.098 44.2244 20.3857 44.1878C18.7381 44.1726 17.4774 45.2362 15.8694 45.8183C16.7251 46.309 17.3525 46.7996 18.0621 47.0435C19.3959 47.5006 19.7614 48.5246 19.9045 49.7437C19.9258 49.9204 19.9197 50.1063 19.9806 50.2679C20.1451 50.6976 20.0172 50.8439 19.5604 50.8622C17.1576 50.9536 14.7578 51.0603 12.3581 51.1883C11.8312 51.2157 11.7155 51.0023 11.7094 50.5208C11.6851 48.9757 11.6302 47.4336 11.5541 45.8914C11.5267 45.352 11.6668 44.9314 12.0414 44.5291C12.9093 43.5966 13.7133 42.6061 14.5842 41.6796C15.0167 41.2224 14.9893 40.7866 14.77 40.1619C13.0585 41.7802 11.4414 43.3406 9.78474 44.8613C9.35534 45.2575 9.19089 45.6507 9.18784 46.2419C9.17566 49.7498 9.55329 53.2424 9.57156 56.7472C9.5807 58.5361 9.58374 58.5087 11.3988 58.3898C11.95 58.3533 12.0992 58.1857 12.0718 57.6523C11.9774 55.9639 11.9317 54.2694 11.8586 52.578C11.8434 52.2062 11.7825 51.9045 12.3489 51.8831C14.6908 51.7978 17.0327 51.6759 19.3716 51.5357C20.0202 51.4961 20.3248 51.6424 20.337 52.3707C20.3735 54.2999 20.4831 56.2291 20.5715 58.1582C20.6598 60.0782 20.6628 60.063 18.7534 60.1026C16.2318 60.1514 13.7102 60.1971 11.1887 60.2977C9.3523 60.3708 9.68424 60.3099 9.80606 61.9068C9.9096 63.2722 9.91569 64.6375 9.92482 66.0029C9.92482 66.2345 10.0832 66.5453 9.69947 66.6794C8.83763 66.9781 8.50264 67.7278 8.31078 68.508C7.98188 69.8399 7.56162 71.1473 8.50264 72.4913C10.8263 75.8163 13.4635 78.8274 16.713 81.2777C17.4865 81.8598 18.3757 82.0396 19.3107 81.9847C21.7683 81.8384 24.2229 81.6647 26.6774 81.5032C27.7281 81.4331 28.6234 81.0125 29.3086 80.2141C29.668 79.7965 30.2192 79.2693 29.9938 78.7786C29.8263 78.419 29.0772 78.6994 28.5899 78.678C28.4742 78.6719 28.3554 78.7268 28.2397 78.7359C25.7364 78.9249 23.2301 79.1108 20.7146 79.2998C20.7329 78.8365 20.8973 78.6628 21.3541 78.6384C23.7204 78.5043 26.0866 78.3367 28.4529 78.1599C29.068 78.1142 29.7898 78.3611 30.271 77.9618C30.7582 77.5565 30.5846 76.7976 30.7095 76.2003C30.8039 75.7523 30.9714 75.6334 31.4008 75.6395C32.4088 75.6548 33.4199 75.6334 34.4309 75.603C34.8573 75.5908 35.1649 75.6731 35.3446 76.115C35.6704 76.9256 36.3739 77.3005 37.1444 77.5778C39.3919 78.3855 41.6881 79.0438 43.9995 79.6289C44.9344 79.8666 45.8694 80.1927 46.8743 80.0678C48.8843 79.8179 50.8942 79.5588 52.9103 79.3759C54.1619 79.2632 55.2704 78.8731 56.2084 78.0502C56.6987 77.6205 57.2073 77.1694 57.2926 76.3771C54.841 76.6757 52.4656 76.9653 50.0659 77.2578C50.0933 76.6209 50.3796 76.435 50.812 76.3862C52.5174 76.1912 54.2167 75.9443 55.9252 75.8011C58.1514 75.6152 58.3524 75.4323 58.4437 73.3447C58.465 72.8266 58.3645 72.7626 57.8651 72.8448L57.8529 72.8479ZM21.5642 46.7113C22.4839 46.7448 23.4036 46.7204 24.3234 46.7204C24.3234 46.7448 24.3234 46.7692 24.3234 46.7966C25.2126 46.7966 26.1049 46.8118 26.9941 46.7905C27.5271 46.7783 27.7981 46.9124 27.8042 47.5311C27.8194 48.8659 27.8925 50.2008 27.9839 51.5326C28.0143 51.9898 27.7951 52.0904 27.4296 52.13C26.0196 52.2854 24.6157 52.4805 23.2027 52.5963C22.5631 52.6481 21.7744 53.09 21.3237 52.6664C20.8912 52.261 21.2353 51.4229 21.1318 50.7829C20.943 49.634 20.9978 48.4758 20.9613 47.3177C20.946 46.8484 21.0953 46.696 21.5673 46.7113H21.5642ZM20.5806 68.8098C20.1634 67.6059 19.5878 66.4783 18.4123 65.4573C21.412 65.4573 24.1589 65.4421 26.9058 65.4665C27.7037 65.4726 28.261 66.009 28.7178 66.5972C29.2051 67.225 29.5949 67.9137 29.8416 68.7397C28.593 68.8341 27.3718 68.9408 26.1475 69.0139C24.5548 69.1084 22.956 69.1572 21.3632 69.2608C20.9552 69.2882 20.7389 69.2669 20.5775 68.8067L20.5806 68.8098ZM21.3358 72.2048C21.3724 71.6898 21.2841 71.1778 21.1013 70.7237C20.8181 70.0105 21.1318 69.9404 21.7226 69.9069C24.2959 69.7576 26.8693 69.5839 29.4396 69.3949C29.939 69.3583 30.204 69.4528 30.2679 70.0166C30.3441 70.6566 30.81 71.3363 30.5542 71.9092C30.2436 72.6041 29.4091 72.1896 28.8244 72.2627C26.5922 72.5309 24.3508 72.7046 22.1642 72.9088C21.4942 73.0734 21.2962 72.7473 21.3358 72.2018V72.2048ZM30.7521 73.7866C30.7369 73.9024 30.7521 74.0243 30.7521 74.1431C30.7521 75.4231 30.7521 75.3744 29.4487 75.4536C27.1495 75.5938 24.8532 75.798 22.5357 75.9778C22.2129 75.8559 21.6617 76.2612 21.5399 75.7919C21.4059 75.2769 21.5368 74.6826 21.5917 74.1279C21.6099 73.9603 21.8383 74.0151 21.9754 73.9999C24.704 73.6982 27.4388 73.4483 30.1796 73.2746C30.5968 73.2471 30.8069 73.3325 30.7521 73.7835V73.7866ZM32.3175 51.3985C31.8881 51.4321 31.4465 51.5113 31.011 51.5814C29.6284 51.8008 29.6132 51.81 29.5583 50.4599C29.5157 49.4267 29.537 48.3905 29.5035 47.3543C29.4913 46.9612 29.5766 46.7722 30.0212 46.7326C30.7217 46.6686 31.413 46.504 32.1104 46.4095C32.3784 46.373 32.6981 46.2724 32.7347 46.7661C32.8321 48.0004 32.9722 49.2317 33.1153 50.6458C33.2341 51.1121 32.9783 51.3467 32.3144 51.3985H32.3175Z" fill="#00417D"/>
<path d="M65.3659 33.9814C65.04 26.9474 65.1679 19.8829 64.903 12.8276C65.646 19.8128 65.5242 26.8346 65.8013 33.8381C65.8044 33.9417 65.5943 34.0362 65.3659 33.9814Z" fill="#E4E7F3"/>
<path d="M69.6507 33.0336C69.1239 29.736 68.5605 26.4476 68.0397 23.1501C67.2905 18.4231 66.5627 13.6902 65.844 8.95716C65.8014 8.67068 65.7709 8.56096 65.442 8.57925C64.5132 8.62496 63.9589 8.05201 63.6209 7.27486C63.0118 5.86684 63.2037 4.51978 64.1294 3.25806C63.2067 3.31291 62.3266 4.10226 62.0951 5.05617C61.5561 7.29314 61.0323 9.53316 60.5024 11.7732C60.4567 11.8555 60.408 11.9347 60.3623 12.017C60.3897 12.0079 60.4141 11.9957 60.4415 11.9896C59.2051 17.265 57.9656 22.5436 56.7383 27.8221C55.3618 33.7345 54.0097 39.65 52.621 45.5594C51.8992 48.6284 51.1287 51.6821 50.3796 54.742C50.3796 54.7511 50.3796 54.7603 50.3796 54.7694C50.2547 56.025 50.3065 57.2776 50.4344 58.5424C52.4474 50.1339 54.366 41.7133 56.3059 33.3018C58.2519 24.872 60.2222 16.4483 62.2078 7.91486C62.6738 8.81087 63.1519 9.5545 64.1081 9.78612C64.3822 9.85317 64.3639 10.0848 64.3761 10.2829C64.4005 10.6669 64.4218 11.0539 64.4249 11.441C64.4675 17.0578 64.5741 22.6716 64.7781 28.2853C64.8451 30.0956 64.9791 31.9303 64.7598 33.7162C64.6137 34.9079 64.5832 35.9959 64.9608 37.1174C65.1679 37.73 65.3354 38.3578 65.509 38.9826C65.9506 40.5795 67.1413 41.2226 68.7828 40.6557C67.8996 39.8512 67.1657 38.9887 66.9647 37.791C66.8581 37.154 66.6449 36.5353 66.4927 35.9045C66.3434 35.298 65.9384 34.6763 66.5749 34.0972C66.6571 34.021 66.6815 33.829 66.5414 33.8107C65.978 33.7284 66.2612 33.2987 66.249 33.0488C66.1851 31.8633 66.1546 30.6747 66.1424 29.4861C66.112 26.4324 65.7861 23.3878 65.9019 20.1176C66.045 20.6571 66.1577 20.9862 66.2186 21.3276C66.9403 25.3078 67.6529 29.288 68.3686 33.2713C68.4021 33.4633 68.329 33.7406 68.661 33.6949C69.0295 33.6461 68.8163 33.3993 68.7889 33.2225C68.0336 28.7394 67.2784 24.2563 66.5201 19.7733C66.112 17.3595 65.4907 14.9702 65.7922 12.4071C65.978 13.5195 66.1485 14.5587 66.3252 15.601C66.7698 18.222 67.2266 20.8399 67.656 23.464C68.1798 26.667 68.6762 29.8762 69.203 33.0823C69.2396 33.3109 69.0751 33.8138 69.5746 33.7071C69.9857 33.6187 69.6842 33.253 69.6507 33.0397V33.0336Z" fill="#00417D"/>
</g>
<defs>
<clipPath id="clip0_337_61">
<rect width="109" height="82" fill="white"/>
</clipPath>
</defs>
</svg>
