<svg width="499" height="498" viewBox="0 0 499 498" fill="none" xmlns="http://www.w3.org/2000/svg">
<path d="M239.36 0C239.753 4.08667 237.867 6.28 233.7 6.58C230.4 6.82 227.11 7.1 223.81 7.37C222.47 7.48 221.79 7.85 222.03 9.55C222.69 14.34 222.58 14.24 227.39 14.13C230.52 14.06 233.61 13.8 236.7 13.39C238.62 13.14 239.69 13.62 239.47 15.81C239.31 17.46 240.42 19.5 237.12 19.5C233.05 19.5 228.99 20.21 224.91 20.45C223.32 20.54 222.88 21.2 223.08 22.62C223.22 23.58 223.34 24.55 223.46 25.51C223.95 29.65 224.08 29.63 228.4 29.09C232.35 28.6 236.34 28.32 240.32 28.12C244.06 27.92 241.96 31.1 242.57 32.62C243.25 34.29 241.41 33.87 240.47 33.95C233.79 34.54 227.09 35.02 220.42 35.69C218.19 35.91 216.86 35.76 216.68 33C216.04 23.2 215.21 13.41 214.39 3.62C214.26 2.07 215.29 2.08 216.2 1.99C219.59 1.68 222.99 1.42 226.38 1.19C229.95 0.95 233.51 0.76 237.02 0.01H239.36V0Z" fill="#F1F1F1"/>
<path d="M0.02 258.07C1.62 256.99 3.43 257.57 5.14 257.47C6.58 257.39 6.36 258.76 6.45 259.64C6.9 264.09 7.38 268.53 7.62 272.99C7.71 274.69 8.3 275.07 9.87 275.05C14.33 274.99 14.87 274.54 14.49 270.18C14.19 266.7 13.8 263.23 13.41 259.76C13.24 258.23 13.65 257.08 15.38 257.53C16.78 257.9 19.27 255.78 19.45 259.35C19.65 263.42 20.3 267.47 20.56 271.54C20.68 273.47 21.4 274.19 23.26 273.8C23.74 273.7 24.24 273.67 24.69 273.49C26.15 272.93 28.52 273.93 29.04 272.67C29.73 271.03 29.34 268.85 29.1 266.94C28.65 263.37 28.22 259.82 28.05 256.22C27.92 253.33 30.01 254.22 31.44 254.01C32.89 253.79 33.88 253.8 34.02 255.94C34.51 263.01 35.22 270.06 36.1 277.09C36.38 279.33 35.69 279.61 33.71 279.78C24.33 280.6 14.97 281.57 5.62 282.6C3.44 282.84 2.5 282.72 2.21 279.97C1.51 273.25 1.47 266.46 0 259.82V258.06L0.02 258.07Z" fill="#F1F1F1"/>
<path d="M418.04 353.2C371.35 430.19 269.94 470.65 175.49 432.46C74.33 391.56 28.2 281.65 61.64 184.37C97.84 79.0399 205 31.32 298.45 55.77C409.85 84.91 454.62 187.4 447.53 261.36C445.65 258.81 443.95 256.37 442.12 254.03C436.91 247.4 430.33 242.52 422.66 239.1C421.35 238.52 420.76 237.91 420.65 236.38C418.86 210.95 411.83 187.08 399.35 164.8C383.61 136.7 361.65 114.84 333.76 98.8799C317.57 89.6199 300.24 83.24 281.95 79.79C268.46 77.24 254.81 76.39 241 77.08C215.89 78.33 192.25 84.74 170.08 96.41C141.83 111.29 119.44 132.49 102.84 159.78C92.04 177.53 84.77 196.67 81 217.05C77.85 234.08 77.45 251.25 79.5 268.5C84.13 307.41 100.45 340.69 127.67 368.62C143.49 384.85 162.01 397.31 182.94 406.16C195.76 411.59 209.03 415.48 222.73 417.65C235.83 419.72 249.06 420.02 262.34 419.12C277.94 418.07 293.04 414.83 307.7 409.57C327.06 402.63 344.56 392.43 360.29 379.15C368.94 371.85 376.72 363.73 383.77 354.91C384.75 353.69 385.7 353.12 387.22 353.44C397.31 355.63 407.42 355.96 418.05 353.19L418.04 353.2Z" fill="#F1F1F1"/>
<path d="M353.33 291.65C353.33 277.74 357.97 265.14 368.19 254.99C379.3 243.95 392.65 239.63 408.33 242.11C429.34 245.44 446.52 263.77 450.6 285.32C453.73 301.87 450.69 317.23 439.84 330.27C428.66 343.71 414.19 349.43 396.57 346.61C374.89 343.15 358.43 324.16 354.53 304.25C353.73 300.2 353.47 296.17 353.34 291.65H353.33Z" fill="#F1F1F1"/>
<path d="M283.94 326.41C287.74 327.31 291.6 328.13 295.4 329.15C313.42 334.01 331.42 338.93 349.44 343.81C357 345.86 364.53 348 372.14 349.8C374.62 350.39 374.26 350.97 373 352.45C359.04 368.85 342.54 382.08 323.39 391.92C311.3 398.13 298.59 402.73 285.3 405.71C268.56 409.47 251.63 410.69 234.58 409.04C206.57 406.32 180.9 396.98 157.68 381.01C157.13 380.63 156.62 380.18 156.08 379.42C160.39 379.36 164.65 378.86 168.93 378.61C173.01 378.37 177.11 378.26 181.2 378.11C187.87 377.86 194.77 372.44 196.63 365.93C197.08 364.35 197.4 362.73 197.8 361.13C198.1 359.91 197.11 357.72 198.87 357.67C201.46 357.59 204.84 355.61 206.64 358.17C210.86 364.16 217.54 365.15 223.58 367.46C229.91 369.88 236.52 371.44 243.08 373.11C243.91 373.32 244.82 373.43 245.67 373.34C253.78 372.49 261.91 371.71 270 370.65C278.5 369.54 283.7 364.09 286.69 356.54C290.53 346.85 289.8 337.34 284.5 328.27C284.22 327.8 283.63 327.43 283.93 326.43L283.94 326.41Z" fill="#F1F1F1"/>
<path d="M387 350.41C380.65 348.85 374.39 347.33 368.13 345.76C356.6 342.87 345.08 339.95 333.56 337.04C323.43 334.48 313.3 331.89 303.16 329.34C296.22 327.59 289.28 325.89 282.34 324.14C281.12 323.83 279.63 323.72 278.79 322.94C274.5 319.02 269.17 319.34 264 319.1C262.35 319.03 261.99 318.43 262.2 317.03C263.21 310.31 264.22 303.6 265.23 296.88C265.42 295.6 266.32 295.16 267.46 294.98C282.1 292.61 296.74 290.28 311.37 287.85C321.99 286.09 332.59 284.23 343.18 282.36C349.19 281.29 348.9 281.21 348.47 287.31C347.37 303.01 351.47 317.31 360.92 329.96C367.39 338.62 375.6 345.1 385.72 349.08C386.21 349.27 386.94 349.25 386.99 350.4L387 350.41Z" fill="#F1F1F1"/>
<path d="M210.02 284.22C209.46 277.89 209.46 277.86 215.71 277.79C227.5 277.65 239.29 277.6 251.07 277.36C253.38 277.31 254 277.98 254.06 280.28C254.38 292.74 254.82 305.19 255.41 317.64C255.5 319.5 254.78 319.83 253.4 319.93C249.62 320.19 245.83 320.45 242.04 320.65C232.32 321.15 222.6 321.55 212.9 322.17C210.94 322.3 211.07 321.25 211.02 320.11C210.67 312.33 210.29 304.55 210.05 296.77C209.92 292.59 210.03 288.41 210.03 284.22H210.02Z" fill="#F1F1F1"/>
<path d="M291.84 109.4C284.73 115.7 277.82 121.82 270.92 127.94C245.63 150.38 220.33 172.82 195.04 195.27C180.14 208.49 165.26 221.73 150.32 234.9C149.35 235.76 148.09 237.99 146.96 236.72C145.88 235.5 148.28 234.63 149.23 233.79C175.92 210 202.65 186.26 229.38 162.52C249.86 144.33 270.35 126.14 290.83 107.94C292.3 106.63 296.89 106.85 298.17 108.36C298.74 109.03 298.45 109.83 298.21 110.58C292.59 128.99 286.97 147.4 281.36 165.82C275.3 185.71 269.26 205.61 263.19 225.5C258.53 240.78 253.86 256.05 249.17 271.32C248.67 272.96 244.62 274.08 243.24 273.01C242.49 272.43 243.04 271.83 243.22 271.2C246.25 261.09 249.23 250.97 252.28 240.87C258.71 219.56 265.16 198.25 271.62 176.95C277.68 156.94 283.76 136.94 289.85 116.94C289.99 116.48 290.28 116.07 289.88 115.33C286.52 118.34 283.18 121.3 279.88 124.31C256.17 145.88 232.46 167.46 208.75 189.03C190.71 205.45 172.68 221.88 154.61 238.26C153.71 239.08 152.42 241.06 151.64 240.16C150.5 238.86 152.66 238 153.54 237.2C182.47 210.82 211.43 184.48 240.41 158.16C256.95 143.13 273.51 128.12 290.06 113.11C291.08 112.19 291.92 111.2 291.82 109.4H291.84Z" fill="#F1F1F1"/>
<path d="M354.33 35.24C350.04 40.64 345.63 45.83 341.67 51.34C339.74 54.02 338.1 52.82 336.04 52.09C333.92 51.34 333.42 50.33 333.93 47.97C335.42 41.16 336.48 34.27 337.26 27.25C334.47 33.38 331.45 39.43 328.97 45.69C327.57 49.2 325.87 47.22 324.07 46.63C321.83 45.9 321.94 44.73 322.87 42.76C326.93 34.19 330.85 25.55 334.66 16.86C335.49 14.98 336.33 14.94 337.96 15.65C345.43 18.89 345.41 18.85 343.91 26.87C343.06 31.4 342.34 35.95 342.17 40.76C346.02 36.05 350.01 31.45 353.65 26.58C355.4 24.24 356.95 23.85 359.31 25.4C361.15 26.61 364.36 26.58 364.88 28.57C365.31 30.21 363.55 32.45 362.67 34.39C359.35 41.71 355.94 48.99 352.71 56.35C351.83 58.35 351 59.12 348.87 57.93C347.01 56.89 344.94 56.6 346.6 53.44C349.39 48.14 351.63 42.54 354.14 37.09C354.39 36.55 354.75 36.1 354.34 35.25L354.33 35.24Z" fill="#F1F1F1"/>
<path d="M29.91 308.22C21.96 305.64 14.53 303.24 7.10004 300.81C5.84004 300.4 3.68004 294.93 4.38004 293.87C4.85004 293.16 5.72004 293.21 6.47004 293.02C15.96 290.73 25.44 288.44 34.91 286.1C36.61 285.68 37.48 286.01 37.51 287.91C37.52 288.66 37.85 289.41 38.06 290.16C38.49 291.66 38.15 292.32 36.4 292.69C30.83 293.88 25.32 295.35 19.79 296.72C19.46 296.8 19 296.69 18.8 297.53C24.41 299.39 30.04 301.26 35.68 303.13C36.23 303.31 36.78 303.57 37.35 303.63C41.26 304.05 42.46 306.65 42.93 310.11C43.12 311.47 42.93 312.1 41.65 312.4C31.89 314.76 22.12 317.12 12.36 319.47C10.86 319.83 10.16 319.28 9.78004 317.64C8.78004 313.31 8.69004 313.42 13.01 312.41C18.51 311.13 23.97 309.69 29.91 308.21V308.22Z" fill="#F1F1F1"/>
<path d="M457.6 360.03C453.32 353.08 449.47 346.84 445.64 340.58C444.65 338.96 445.89 333.71 447.41 332.73C448.08 332.3 448.54 332.8 449 333.03C458.09 337.53 467.16 342.08 476.26 346.55C477.57 347.19 477.74 347.89 477.05 349.04C476.7 349.62 476.35 350.22 476.14 350.86C475.42 353.06 474.21 353.22 472.25 352.19C466.98 349.42 461.62 346.82 455.88 344.6C459.38 350.14 462.66 355.85 466.47 361.17C468.68 364.25 468.67 366.77 466.77 369.8C465.99 371.05 465.41 371.43 464.06 370.75C455.15 366.27 446.23 361.8 437.26 357.43C435.61 356.63 435.75 355.87 436.45 354.52C438.97 349.62 438.08 350.41 442.14 352.36C447.08 354.73 451.95 357.23 457.59 360.04L457.6 360.03Z" fill="#F1F1F1"/>
<path d="M354.23 265.44C352.52 269.89 350.63 274 349.84 278.47C349.65 279.56 348.63 279.19 347.92 279.31C335.9 281.42 323.88 283.49 311.87 285.63C301.86 287.41 291.86 289.26 281.85 291.09C277.19 291.94 272.53 292.84 267.86 293.66C267.19 293.78 266.14 294.23 265.87 293.2C265.61 292.22 266.35 291.69 267.33 291.4C279 287.93 290.65 284.41 302.31 280.93C315.93 276.86 329.55 272.81 343.17 268.75C346.75 267.68 350.32 266.61 354.23 265.43V265.44Z" fill="#F1F1F1"/>
<path d="M260.36 469.33C256.72 469.55 252.83 469.77 248.95 470.01C245.47 470.22 247.31 467.5 246.88 466.1C246.4 464.53 247.23 463.97 248.9 463.92C256 463.69 263.09 463.37 270.18 462.94C271.99 462.83 272.6 463.42 272.67 465.16C273.04 474.88 273.41 484.6 273.91 494.32C274.02 496.46 273.19 496.91 271.27 496.97C264.47 497.19 257.67 497.54 250.87 497.91C249.26 498 248.35 497.52 248.67 495.83C248.95 494.3 247.33 491.83 250.58 491.65C255.05 491.4 259.53 491.74 264 491.23C265.99 491 266.83 490.47 266.39 488.42C266.23 487.67 266.19 486.86 266.27 486.09C266.46 484.34 265.64 483.95 264.06 484.04C259.98 484.27 255.88 484.2 251.82 484.61C248.86 484.91 249.38 483.13 249.28 481.41C249.18 479.66 249.25 478.57 251.62 478.61C255.7 478.67 259.78 478.2 263.86 478.09C265.39 478.05 265.98 477.52 265.77 476.02C265.69 475.45 265.73 474.85 265.72 474.27C265.653 470.957 263.867 469.313 260.36 469.34V469.33Z" fill="#F1F1F1"/>
<path d="M317.51 29.34C313.86 28.23 310.16 27.12 306.47 25.97C302.85 24.84 302.85 24.82 301.82 28.49C300.44 33.41 300.43 33.43 305.23 34.87C309.02 36.01 312.82 37.16 316.65 38.17C318.26 38.6 318.51 39.7 317.72 40.63C316.78 41.72 318.14 44.87 314.99 43.95C307.84 41.86 300.74 39.62 293.58 37.58C292.21 37.19 291.9 36.89 292.33 35.45C295.25 25.72 298.06 15.96 300.89 6.19997C301.21 5.10997 301.64 4.66997 302.96 5.06997C309.81 7.14997 316.68 9.14997 323.57 11.08C326.19 11.81 325.14 13.44 324.67 14.9C324.23 16.26 324.19 17.95 321.72 17.07C317.63 15.6 313.36 14.61 309.25 13.2C307.26 12.52 306.13 12.74 305.7 14.93C305.53 15.78 305.32 16.64 305.02 17.45C304.51 18.8 304.83 19.5 306.31 19.89C310.51 21 314.67 22.27 318.87 23.41C320.15 23.76 320.84 24.46 320.12 25.62C319.34 26.87 320.38 29.45 317.51 29.35V29.34Z" fill="#F1F1F1"/>
<path d="M470.93 135.21C470.83 136.08 470.15 136.29 469.59 136.61C460.91 141.53 452.2 146.41 443.57 151.42C442.04 152.31 441.3 151.86 440.67 150.57C438.02 145.13 437.3 146.92 442.35 143.89C444.59 142.54 446.87 141.27 449.18 140.03C450.55 139.3 450.99 138.6 450.01 137.1C448.47 134.75 447.06 132.3 445.85 129.77C444.9 127.8 443.9 127.97 442.32 128.95C439.52 130.69 436.58 132.19 433.78 133.92C432.4 134.77 431.64 134.68 430.8 133.19C428.32 128.82 428.27 128.84 432.64 126.37C440.31 122.03 448.03 117.77 455.63 113.32C457.4 112.28 458.35 112.15 459.04 114.24C459.19 114.69 459.53 115.08 459.82 115.47C461.22 117.38 461.25 118.73 458.71 119.84C456.15 120.96 453.83 122.64 451.33 123.92C450.13 124.53 450.05 125.14 450.66 126.19C452.26 128.96 453.86 131.73 455.36 134.56C456.07 135.89 456.75 135.76 457.88 135.07C460.36 133.56 463.04 132.35 465.45 130.74C467.22 129.55 468.14 129.93 468.98 131.68C469.57 132.9 470.29 134.06 470.93 135.22V135.21Z" fill="#F1F1F1"/>
<path d="M40.1801 342.05C40.8601 341.81 41.4101 341.63 41.9501 341.41C44.6401 340.32 47.3301 339.23 50.0101 338.14C51.1301 337.69 52.4801 336.24 53.3901 337.4C54.5401 338.86 55.0501 340.85 55.6401 342.68C55.9201 343.53 54.8801 343.71 54.3101 343.95C45.1201 347.79 35.9001 351.57 26.7201 355.44C25.3401 356.02 24.6101 355.77 23.9501 354.44C21.6001 349.72 21.6001 349.79 26.3801 347.77C28.9201 346.7 32.8301 346.47 33.5701 344.17C34.2101 342.19 31.9601 339.24 30.9201 336.75C29.2101 332.69 29.1901 332.71 25.0901 334.43C23.8401 334.95 22.5901 335.46 21.3101 335.92C19.9001 336.42 18.2101 338.01 17.1301 337.06C15.8801 335.96 15.4901 333.86 14.7701 332.17C14.3301 331.13 15.0901 330.83 15.8401 330.51C25.3101 326.59 34.7801 322.69 44.2301 318.73C45.1501 318.34 45.6801 318.44 46.0801 319.31C46.2401 319.66 46.3901 320.02 46.5401 320.38C47.7668 323.273 46.8935 325.323 43.9201 326.53C41.4101 327.56 38.9401 328.67 36.4301 329.68C35.3901 330.1 34.7501 330.55 35.3101 331.8C36.6401 334.81 37.9301 337.85 39.2001 340.88C39.4301 341.42 39.6001 341.94 40.1601 342.05H40.1801Z" fill="#F1F1F1"/>
<path d="M42.57 387.18C41.89 387.06 41.68 386.5 41.39 386.01C37.71 379.75 34.07 373.46 30.32 367.24C28.66 364.49 31.56 364.87 32.48 363.97C33.5 362.96 34.57 362.44 35.6 364.32C37.84 368.4 40.37 372.32 42.62 376.39C43.48 377.95 44.12 378.11 45.67 377.18C49.79 374.7 49.86 374.79 47.39 370.57C45.68 367.64 44.01 364.68 42.2 361.82C40.55 359.2 43.29 359.33 44.26 358.47C45.24 357.6 46.37 356.73 47.46 358.73C49.54 362.56 51.89 366.25 54.04 370.04C54.79 371.37 55.47 371.54 56.72 370.64C58.51 369.35 61.38 368.61 62 366.95C62.48 365.67 60.27 363.34 59.2 361.5C57.5 358.57 55.86 355.58 54 352.76C52.47 350.44 54.57 350.2 55.69 349.49C56.75 348.82 57.85 347.27 59.13 349.5C62.79 355.89 66.56 362.22 70.36 368.52C71.18 369.88 70.86 370.45 69.56 371.21C60.85 376.28 52.2 381.43 43.53 386.56C43.2 386.76 42.87 386.97 42.55 387.17L42.57 387.18Z" fill="#F1F1F1"/>
<path d="M338.26 459.29C338.11 458.97 337.88 458.55 337.7 458.11C336.48 455.15 335.42 452.12 334.01 449.25C333 447.2 333.35 446.33 335.51 445.5C339.56 443.95 339.52 443.79 341.16 447.74C344.7 456.23 348.17 464.74 351.78 473.19C352.47 474.81 352 475.39 350.58 476C345.95 477.98 345.98 478.02 344.06 473.19C343.56 471.93 342.94 470.72 342.41 469.47C341.31 466.91 339.54 466.15 337.1 467.19C335.05 468.07 333.05 469.06 330.97 469.84C329.47 470.4 328.85 470.93 329.71 472.64C331.01 475.23 331.91 478.02 333.14 480.64C333.88 482.21 333.85 483.2 331.97 483.67C331.41 483.81 330.89 484.11 330.38 484.39C328.24 485.59 327.17 485.1 326.21 482.67C322.77 473.94 319.09 465.3 315.39 456.68C314.57 454.77 314.91 453.81 316.86 453.26C317.6 453.05 318.3 452.7 318.98 452.34C320.54 451.51 321.31 451.89 321.92 453.62C323.05 456.81 324.52 459.87 325.75 463.03C326.35 464.57 327.02 465.12 328.73 464.29C331.24 463.06 333.92 462.17 336.49 461.06C337.22 460.74 338.25 460.61 338.26 459.29Z" fill="#F1F1F1"/>
<path d="M414.56 416.76C413.26 415.57 411.89 414.58 410.88 413.31C410.02 412.22 411.43 411.65 412 411.01C414.65 408.04 417.36 405.12 420.09 402.22C421.16 401.08 421.56 400.32 420.06 398.97C414.93 394.37 415.03 394.32 410.46 399.62C408.3 402.12 405.95 404.46 403.81 406.98C402.57 408.45 401.58 407.85 400.77 406.78C399.95 405.69 397.27 405.17 399.21 403.02C404.23 397.46 409.33 391.98 414.36 386.43C415.21 385.49 415.76 385.49 416.7 386.36C424.13 393.22 431.6 400.05 439.12 406.82C440.2 407.79 440.19 408.46 439.28 409.44C434.41 414.73 429.53 420.02 424.72 425.38C423.2 427.08 422.3 425.81 421.53 424.79C420.79 423.81 418.18 423.47 420.25 421.29C423.47 417.91 426.45 414.31 429.72 410.99C431.13 409.56 430.93 408.84 429.56 407.61C426.05 404.49 426.1 404.42 422.8 407.96C420.48 410.45 418.2 412.97 415.89 415.48C415.51 415.89 415.08 416.26 414.56 416.76Z" fill="#F1F1F1"/>
<path d="M175.47 451.63C175.31 451.58 175.4 451.63 175.5 451.63C180.89 452.48 180.95 452.66 179.59 457.78C177.79 464.51 176.19 471.29 174.34 478C173.9 479.58 174.31 480.04 175.72 480.38C178.54 481.05 181.33 481.85 184.13 482.59C185.6 482.98 186.37 482.64 186.78 480.93C188.45 473.87 190.27 466.84 192.13 459.83C192.45 458.62 192.27 456.77 193.89 456.51C195.83 456.19 197.65 457.26 199.45 457.89C200.16 458.14 199.7 459.16 199.54 459.76C197.06 469.42 194.49 479.05 192.08 488.73C191.69 490.29 191.15 490.6 189.7 490.22C182.22 488.26 174.72 486.38 167.23 484.44C166.16 484.16 165.41 483.86 165.84 482.25C168.44 472.53 170.85 462.76 173.37 453.02C173.58 452.2 173.69 450.89 175.46 451.62L175.47 451.63Z" fill="#F1F1F1"/>
<path d="M410.98 86.14C410.61 85.72 410.32 85.34 409.98 85.02C409.15 84.21 408.31 83.4 407.45 82.61C405.6 80.9 403.65 77.75 401.9 77.86C399.62 77.99 398.14 81.35 396.21 83.22C395.86 83.56 395.57 83.95 395.24 84.31C391.67 88.21 390.85 88.15 387.48 84.02C386.7 83.06 387.07 82.52 387.74 81.82C394.76 74.42 401.78 67.02 408.76 59.59C409.62 58.68 410.11 58.7 411.07 59.56C415.15 63.23 415.17 63.17 411.48 67.09C409.69 69 406.79 70.87 406.61 72.95C406.47 74.55 409.78 76.47 411.58 78.22C414.073 80.6333 416.533 80.58 418.96 78.06C419.7 77.29 420.45 76.53 421.17 75.73C424.39 72.17 424.34 72.21 427.8 75.42C429.11 76.64 429.43 77.39 427.97 78.88C421.26 85.77 414.66 92.78 408.09 99.81C406.82 101.17 406.04 101.66 404.48 100.03C401.25 96.69 401.13 96.79 404.43 93.31C406.17 91.47 407.96 89.68 409.7 87.84C410.16 87.36 410.51 86.78 410.98 86.14Z" fill="#F1F1F1"/>
<path d="M413.27 435.1C413.25 436.12 412.56 436.44 412.05 436.84C406.99 440.92 401.89 444.96 396.84 449.05C395.66 450.01 394.85 450.08 393.8 448.74C387.67 440.96 381.48 433.24 375.26 425.53C374.23 424.25 374.22 423.34 375.74 422.51C376.32 422.19 376.85 421.71 377.3 421.21C378.82 419.51 379.9 419.67 381.34 421.55C385.94 427.57 390.78 433.41 395.41 439.41C396.54 440.88 397.33 440.99 398.77 439.89C404.76 435.35 404.75 435.41 400.07 429.53C397.17 425.88 394.24 422.24 391.59 418.41C388.37 413.76 390.55 407.89 395.99 406.42C397.77 405.94 398.05 408.09 399.06 408.98C399.72 409.56 400.19 410.35 399.04 411.09C396.03 413 397.23 414.88 398.95 416.99C403.38 422.39 407.68 427.9 412.02 433.37C412.5 433.97 412.92 434.61 413.28 435.1H413.27Z" fill="#F1F1F1"/>
<path d="M93.17 397.84C92.57 399.24 91 399.82 89.88 400.85C88.95 401.71 88.44 400.57 88.1 400.06C86.45 397.65 84.81 398.35 82.98 399.83C77.23 404.47 71.41 409.03 65.67 413.67C64.53 414.59 63.76 414.97 62.67 413.56C58.62 408.34 54.51 403.17 50.33 398.05C49.3 396.79 49.32 396.15 50.64 395.11C58.29 389.12 65.88 383.07 73.43 376.96C75.02 375.67 76.17 375.34 77.23 377.43C77.49 377.94 77.93 378.37 78.34 378.78C79.66 380.1 79.95 381.04 78.12 382.44C72.1 387.03 66.29 391.89 60.31 396.53C58.72 397.77 58.36 398.58 59.75 400.33C64.33 406.11 64.21 406.12 70.03 401.35C74.08 398.03 77.98 394.48 82.63 391.99C86.27 390.04 93.19 393.86 93.16 397.86L93.17 397.84Z" fill="#F1F1F1"/>
<path d="M179.16 45.51C176.34 46.58 174.23 47.28 172.21 48.18C170.92 48.76 170.47 47.8 169.8 47.2C167.06 44.72 164.37 42.19 161.59 39.75C160.88 39.12 159.96 38.7 159.1 38.27C158.56 38.01 157.95 38.07 157.45 38.48C156.78 39.02 157.35 39.58 157.53 40.05C158.82 43.39 160.14 46.72 161.51 50.03C162.11 51.49 162.22 52.63 160.23 52.92C159.96 52.96 159.72 53.19 159.45 53.3C156.983 54.32 155.253 53.5833 154.26 51.09C150.94 42.72 147.67 34.33 144.25 26C143.37 23.86 143.49 22.87 145.98 22.15C149.84 21.02 149.79 20.81 151.35 24.61C152.38 27.12 153.41 29.63 154.42 32.15C154.63 32.69 154.7 33.56 155.27 33.53C155.81 33.5 156.39 32.91 156.83 32.46C157.5 31.78 157.37 30.83 157.44 29.97C157.64 27.35 157.8 24.72 158.02 22.1C158.31 18.49 161.58 14.98 165.2 14.38C166.83 14.11 166.71 15.59 166.97 16.42C167.29 17.41 168.75 18.78 166.66 19.51C163.77 20.51 163.48 22.82 163.43 25.36C163.39 27.67 163.88 30.05 162.72 32.24C162.27 33.09 162.66 33.42 163.44 33.67C169.88 35.71 173.52 41.34 179.17 45.52L179.16 45.51Z" fill="#F1F1F1"/>
<path d="M496.39 219.4C496.61 224.39 494.88 228.22 490.72 230.93C489.01 232.04 487.96 232.16 487.35 229.93C487.04 228.82 486.59 227.73 486.09 226.69C485.72 225.91 485.83 225.44 486.59 225.04C489.98 223.2 491.11 220.33 490.06 216.71C488.99 213.02 486.33 211.01 481.92 210.99C478.56 210.98 475.15 211.32 472.03 212.95C469.02 214.53 467.39 217.08 467.72 220.19C468.06 223.4 469.72 225.52 472.93 226.43C473.86 226.7 475.55 226.64 475.55 227.71C475.55 229.7 475.09 231.74 474.47 233.66C474.2 234.49 473.1 233.84 472.38 233.66C462.04 230.97 458.2 218.89 464.6 210.22C469.68 203.34 486.45 200.36 493.27 209.49C495.54 212.53 496.43 215.86 496.37 219.39L496.39 219.4Z" fill="#F1F1F1"/>
<path d="M130.62 66.91C123.52 66.6 117.49 61.27 114.78 53.12C111.1 42.06 118.35 33.81 127.99 32.2C131.52 31.61 134.67 32.95 137.42 35.21C138.36 35.99 138.6 36.67 137.43 37.5C136.73 38 136.11 38.66 135.55 39.33C134.34 40.79 133.31 41.18 131.52 39.85C127.14 36.59 121.06 41.15 120.58 45.46C120.04 50.32 125.16 58.63 129.72 60.25C134.78 62.05 140.26 57.53 138.99 52.32C138.39 49.86 139.42 49.48 141.24 49.17C145.71 48.41 146.75 49.44 146.26 54.16C145.5 61.44 138.38 67.24 130.63 66.91H130.62Z" fill="#F1F1F1"/>
<path d="M23.9801 215.62C16.9101 214.97 10.4001 213.16 6.76014 206.21C3.04014 199.1 6.16014 189.04 12.9701 185.8C13.1501 185.72 13.3001 185.58 13.4801 185.52C15.1301 184.99 17.4201 184.01 18.3601 185.27C19.4701 186.77 18.7901 189.21 18.6001 191.22C18.5201 192.1 17.5401 191.82 16.9101 191.96C14.3401 192.53 12.5401 194.06 11.7801 196.58C10.9301 199.43 11.0801 202.25 13.4701 204.34C17.7901 208.13 23.0601 208.99 28.4801 208.12C31.6101 207.62 33.3801 204.95 33.8501 201.88C34.2701 199.21 33.0001 197.06 30.8401 195.37C30.1001 194.79 28.3601 194.55 28.8801 193.31C29.6401 191.46 30.8801 189.78 32.0801 188.14C32.4801 187.6 33.1301 188.36 33.5701 188.61C38.7101 191.48 41.0501 197.43 39.6901 204.01C38.5101 209.7 33.1601 214.83 27.8301 215.35C26.5701 215.47 25.3101 215.53 23.9901 215.62H23.9801Z" fill="#F1F1F1"/>
<path d="M113.06 266C110.96 268.87 108.86 271.74 106.74 274.59C105.96 275.63 105.43 276.66 105.51 278.05C106.18 289.53 106.5 301.02 106.58 312.52C106.59 314.65 106.8 316.79 106.96 319.61C104.53 317.36 102.91 315.03 102.01 312.59C98.7701 303.9 95.4001 295.23 94.0101 285.95C93.3901 281.8 94.6401 278.43 97.4501 275.62C101.8 271.26 107.15 268.34 113.07 265.99L113.06 266Z" fill="#F1F1F1"/>
<path d="M213.72 477.73C210.88 482.55 208.4 486.76 205.93 490.97C204.66 493.14 199.96 494.01 197.97 492.47C197.09 491.78 197.79 491.23 198.12 490.75C203.74 482.5 208.87 473.93 214.78 465.87C217.56 462.08 221.06 461.1 225.48 462.34C227.98 463.04 227.04 464.84 226.98 466.33C226.91 467.9 226.08 468.34 224.44 468.02C219.58 467.08 217.46 469.55 218.96 474.28C221.09 481.01 223.28 487.72 225.44 494.44C226.26 496.99 226 497.27 223.3 496.73C222.54 496.58 221.76 496.2 221.03 496.29C218.82 496.56 218.2 495.26 217.76 493.49C216.52 488.46 215.2 483.45 213.73 477.73H213.72Z" fill="#F1F1F1"/>
<path d="M80.6301 90.1C78.3301 85.26 76.4101 80.8 74.1001 76.54C72.9201 74.36 72.9501 72.85 74.8601 71.29C75.8301 70.5 76.6201 69.49 77.6701 68.39C79.6801 71.81 80.8801 75.37 82.2501 78.84C85.0201 85.85 88.6501 92.54 90.3901 99.94C91.2001 103.4 89.0801 107.83 85.7801 109.1C83.9701 109.8 83.3601 107.7 82.1901 106.92C81.0401 106.16 81.9701 105.47 82.5101 104.82C83.1301 104.07 83.8501 103.39 84.3201 102.56C85.5001 100.5 84.4001 97.71 82.1001 97.01C74.6001 94.73 67.1101 92.43 59.5701 90.3C57.8001 89.8 57.6501 89.37 58.9101 88.19C59.0501 88.06 59.2401 87.95 59.3401 87.79C61.4601 84.25 64.2001 83.9 67.8801 85.54C71.8201 87.3 76.0301 88.48 80.6401 90.09L80.6301 90.1Z" fill="#F1F1F1"/>
<path d="M32.0201 168.28C28.6201 165.12 25.7301 162.32 22.7301 159.65C17.9001 155.36 17.8701 155.39 21.3601 149.22C26.3301 154.19 31.2801 159.09 36.1701 164.05C38.6901 166.61 41.1601 169.22 43.5201 171.92C46.8401 175.72 47.0001 179.14 44.3701 183.35C42.9101 185.7 41.5301 183.54 40.1301 183.35C38.5701 183.13 38.7601 182.2 39.2201 181.02C41.2001 175.86 39.4501 173.67 34.1201 174.25C26.9801 175.03 19.8201 175.57 12.6801 176.29C10.8401 176.47 10.6601 176.03 11.1501 174.27C12.2101 170.51 13.9301 168.43 18.3601 168.78C22.6401 169.12 27.0001 168.5 32.0001 168.28H32.0201Z" fill="#F1F1F1"/>
<path d="M478.48 247.81C482.37 247.81 486.27 247.71 490.16 247.86C491.75 247.92 492.26 247.46 492.21 245.96C492.16 244.6 492.28 243.23 492.34 241.87C492.51 237.7 492.51 237.74 496.67 238.01C497.94 238.09 498.63 238.33 498.58 239.83C498.34 247.62 498.19 255.41 497.98 263.2C497.9 266.07 495.69 264.87 494.27 264.98C492.86 265.09 491.4 264.98 491.76 262.85C491.84 262.37 491.85 261.88 491.88 261.39C492.35 254.91 492.35 254.9 485.74 254.73C479.7 254.58 473.66 254.54 467.62 254.32C464.03 254.19 464.24 254.08 464.22 250.13C464.21 247.2 465.56 246.84 467.97 247.05C471.46 247.35 474.97 247.39 478.47 247.55C478.47 247.64 478.47 247.73 478.47 247.82L478.48 247.81Z" fill="#F1F1F1"/>
<path d="M92.7501 62.71C92.3001 63 91.7901 63.29 91.3301 63.64C90.1701 64.52 89.0401 65.44 87.8901 66.34C85.3801 68.32 82.9601 67.47 82.0201 64.36C81.7001 63.31 82.4101 62.93 82.9801 62.49C89.1201 57.75 95.3001 53.07 101.41 48.3C103.2 46.9 103.86 48.31 104.42 49.41C104.97 50.49 107.6 51.32 105.16 53.04C105 53.15 104.84 53.27 104.7 53.4C102.88 55.11 99.4101 55.99 99.3201 58.24C99.2401 60.14 101.79 62.19 103.26 64.11C106.8 68.73 110.35 73.36 113.99 77.9C115.25 79.47 115.59 80.63 113.54 81.72C112.86 82.08 112.21 82.57 111.69 83.13C110.4 84.56 109.63 84.13 108.57 82.72C103.84 76.44 99.0001 70.26 94.1901 64.04C93.7901 63.53 93.6401 62.75 92.7401 62.69L92.7501 62.71Z" fill="#F1F1F1"/>
<path d="M461.24 379.71C460.93 380.17 460.61 380.65 460.29 381.12C456.07 387.28 451.76 393.38 447.66 399.62C446.35 401.61 445.32 400.91 444.03 399.9C442.75 398.9 440.71 398.31 442.66 396.01C444.22 394.17 446.67 391.92 446.49 390.07C446.3 388.14 442.94 387.16 440.96 385.77C436.04 382.32 431.12 378.86 426.08 375.6C424.35 374.48 424.09 373.56 425.4 372.06C425.84 371.55 426.19 370.95 426.53 370.36C427.47 368.73 428.34 368.35 430.14 369.64C436.44 374.16 442.95 378.4 449.3 382.86C450.64 383.8 451.36 383.93 452.19 382.38C452.87 381.1 453.81 379.96 454.61 378.75C456.38 376.09 459.28 376.11 460.94 378.8C461.08 379.03 461.13 379.33 461.26 379.7L461.24 379.71Z" fill="#F1F1F1"/>
<path d="M452.51 104.91C451.66 106.44 450.12 107.18 448.88 108.18C447.83 109.03 447.38 107.83 446.84 107.24C446.38 106.74 445.98 106.19 445.56 105.65C441.84 100.96 441.86 100.99 437.05 104.74C432 108.68 426.87 112.51 421.86 116.49C420.43 117.63 419.63 117.72 418.44 116.14C415.63 112.42 415.51 112.45 419.08 109.66C424.67 105.31 430.27 100.97 435.94 96.7301C437.32 95.7001 437.73 94.99 436.34 93.63C435.24 92.55 434.59 91.01 433.48 89.96C431.3 87.89 432.22 86.81 434.26 85.33C435.95 84.1 436.73 84.17 437.96 85.81C442.38 91.73 446.95 97.54 451.46 103.39C451.81 103.85 452.13 104.34 452.54 104.91H452.51Z" fill="#F1F1F1"/>
<path d="M59.2399 96.82C58.7599 97.59 58.3399 98.36 57.8399 99.06C55.7599 101.99 53.7399 104.96 51.5099 107.78C50.4099 109.18 50.4799 109.85 51.9699 110.88C58.2799 115.23 64.4599 119.76 70.7599 124.12C72.4099 125.26 73.2699 126.26 71.4399 127.87C70.0799 129.06 70.0599 132.59 66.6399 130.04C58.9599 124.31 51.0799 118.84 43.2199 113.35C41.7499 112.32 41.3499 111.64 42.5499 110.03C46.1899 105.13 49.6299 100.08 53.2299 95.14C53.7199 94.47 54.1499 93 55.3799 93.78C56.7299 94.63 58.2899 95.33 59.2299 96.82H59.2399Z" fill="#F1F1F1"/>
<path d="M265.64 288.76C301.84 273.48 337.36 258.49 373.25 243.34C369.13 247.97 363.22 251.75 355.88 254.63C327 265.97 298.12 277.33 269.24 288.67C268.39 289 267.57 289.6 265.64 288.76Z" fill="#F1F1F1"/>
<path d="M257.49 278.4C257.53 280.35 257.55 282.29 257.57 284.24C258.56 284.99 258.54 284.29 258.72 283.54C261.37 272.25 264.08 260.97 266.72 249.68C269.75 236.7 272.71 223.69 275.73 210.71C279.67 193.76 283.66 176.81 287.6 159.86C287.86 158.73 287.93 157.56 288.09 156.4C287.06 157.2 287.09 158.46 286.79 159.55C282.38 175.69 278.03 191.84 273.61 207.98C267.91 228.77 262.12 249.54 256.52 270.35C255.98 272.35 253.68 275.02 257.35 276.72C257.6 276.84 257.48 277.82 257.49 278.4Z" fill="#F1F1F1"/>
<path d="M470.39 188.32C471.78 188.12 472.1 189.11 472.3 190.07C472.93 192.98 473.36 195.95 474.15 198.82C474.59 200.43 474 200.88 472.68 201.22C467.88 202.46 467.9 202.47 466.96 197.37C466.65 195.67 466.38 193.92 465.77 192.32C464.83 189.84 465.9 189.05 468.15 188.86C468.9 188.8 469.64 188.51 470.39 188.32Z" fill="#F1F1F1"/>
<path d="M321.55 260.04C318.17 262.06 315.61 261.14 313.8 257.54C311.6 253.16 313.24 248.39 317.92 246.31C316.36 248.86 315.39 251.39 316.22 254.09C317.02 256.67 318.75 258.65 321.54 260.04H321.55Z" fill="#F1F1F1"/>
<path d="M280.56 2.25C275.81 1.49 270.94 1.4 266.29 0H265.7C264.3 10.48 262.94 20.96 261.45 31.42C261.18 33.32 261.49 33.9 263.53 34.03C268.11 34.32 268.11 34.46 268.8 29.7C268.98 28.45 269.12 27.2 269.22 25.94C269.54 22.05 269.73 21.95 273.67 22.67C275.19 22.95 276.77 22.93 278.32 23.09C284.85 23.8 289.48 19.82 290.17 12.88C290.71 7.41 286.65 3.22 280.57 2.24L280.56 2.25ZM282.62 13.11C282.32 15.69 280.49 16.93 277.08 16.87C270.55 16.75 270.87 16.78 271.34 10.44C271.59 7.04 272.63 6.56 275.43 7.61C276.23 7.91 277.14 7.88 277.99 8.05C281.59 8.76 282.95 10.26 282.62 13.11Z" fill="#F1F1F1"/>
<path d="M283.8 346.12C277.67 347.11 271.51 347.96 265.35 348.73C260.98 349.28 261.29 349.12 260.33 344.75C259.63 341.58 261.18 341.5 263.38 341.27C269.86 340.6 276.4 340.57 282.84 339.45C283.66 339.31 285.31 340.12 284.83 338.03C284.52 336.67 284.13 335.97 282.34 336.18C275.58 336.99 268.79 337.54 262.01 338.15C260.79 338.26 259.42 338.65 258.86 336.95C258.27 335.13 257.66 333.31 256.96 331.2C264.41 330.8 271.69 330.43 278.96 330C279.87 329.95 281.45 330.55 281.42 328.95C281.4 327.53 279.96 327.71 278.89 327.73C278.01 327.75 277.14 327.77 276.26 327.79C266.47 328 256.85 330.1 247.05 330.27C243.75 330.33 240.45 330.84 237.15 331.03C228.5 331.53 219.83 331.91 211.18 332.45C209.24 332.57 209.1 331.76 208.92 330.13C208.21 323.72 208.43 317.28 208.1 310.85C207.49 299.37 207.12 287.88 206.64 276.39C206.6 275.47 206.55 274.54 207.86 274.56C210.39 274.62 210.34 273.02 210.07 271.22C209.63 268.32 208.56 265.01 209.79 262.58C211.54 259.14 210.3 255.9 210.69 252.61C210.83 251.4 210.33 250.8 209.05 250.83C206.01 250.91 202.8 249.87 200.15 252.35C199.36 253.09 198.28 252.71 197.33 252.7C185.14 252.5 172.96 252.2 160.77 252.08C155.36 252.03 151.22 255.52 145.94 257.43C148.75 259.04 150.81 260.65 153.14 261.45C157.52 262.95 158.72 266.31 159.19 270.31C159.26 270.89 159.24 271.5 159.44 272.03C159.98 273.44 159.56 273.92 158.06 273.98C150.17 274.28 142.29 274.63 134.41 275.05C132.68 275.14 132.3 274.44 132.28 272.86C132.2 267.79 132.02 262.73 131.77 257.67C131.68 255.9 132.14 254.52 133.37 253.2C136.22 250.14 138.86 246.89 141.72 243.85C143.14 242.35 143.05 240.92 142.33 238.87C136.71 244.18 131.4 249.3 125.96 254.29C124.55 255.59 124.01 256.88 124 258.82C123.96 270.33 125.2 281.79 125.26 293.29C125.29 299.16 125.3 299.07 131.26 298.68C133.07 298.56 133.56 298.01 133.47 296.26C133.16 290.72 133.01 285.16 132.77 279.61C132.72 278.39 132.52 277.4 134.38 277.33C142.07 277.05 149.76 276.65 157.44 276.19C159.57 276.06 160.57 276.54 160.61 278.93C160.73 285.26 161.09 291.59 161.38 297.92C161.67 304.22 161.68 304.17 155.41 304.3C147.13 304.46 138.85 304.61 130.57 304.94C124.54 305.18 125.63 304.98 126.03 310.22C126.37 314.7 126.39 319.18 126.42 323.66C126.42 324.42 126.94 325.44 125.68 325.88C122.85 326.86 121.75 329.32 121.12 331.88C120.04 336.25 118.66 340.54 121.75 344.95C129.38 355.86 138.04 365.74 148.71 373.78C151.25 375.69 154.17 376.28 157.24 376.1C165.31 375.62 173.37 375.05 181.43 374.52C184.88 374.29 187.82 372.91 190.07 370.29C191.25 368.92 193.06 367.19 192.32 365.58C191.77 364.4 189.31 365.32 187.71 365.25C187.33 365.23 186.94 365.41 186.56 365.44C178.34 366.06 170.11 366.67 161.85 367.29C161.91 365.77 162.45 365.2 163.95 365.12C171.72 364.68 179.49 364.13 187.26 363.55C189.28 363.4 191.65 364.21 193.23 362.9C194.83 361.57 194.26 359.08 194.67 357.12C194.98 355.65 195.53 355.26 196.94 355.28C200.25 355.33 203.57 355.26 206.89 355.16C208.29 355.12 209.3 355.39 209.89 356.84C210.96 359.5 213.27 360.73 215.8 361.64C223.18 364.29 230.72 366.45 238.31 368.37C241.38 369.15 244.45 370.22 247.75 369.81C254.35 368.99 260.95 368.14 267.57 367.54C271.68 367.17 275.32 365.89 278.4 363.19C280.01 361.78 281.68 360.3 281.96 357.7C273.91 358.68 266.11 359.63 258.23 360.59C258.32 358.5 259.26 357.89 260.68 357.73C266.28 357.09 271.86 356.28 277.47 355.81C284.78 355.2 285.44 354.6 285.74 347.75C285.81 346.05 285.48 345.84 283.84 346.11L283.8 346.12ZM164.64 260.36C167.66 260.47 170.68 260.39 173.7 260.39C173.7 260.47 173.7 260.55 173.7 260.64C176.62 260.64 179.55 260.69 182.47 260.62C184.22 260.58 185.11 261.02 185.13 263.05C185.18 267.43 185.42 271.81 185.72 276.18C185.82 277.68 185.1 278.01 183.9 278.14C179.27 278.65 174.66 279.29 170.02 279.67C167.92 279.84 165.33 281.29 163.85 279.9C162.43 278.57 163.56 275.82 163.22 273.72C162.6 269.95 162.78 266.15 162.66 262.35C162.61 260.81 163.1 260.31 164.65 260.36H164.64ZM161.41 332.87C160.04 328.92 158.15 325.22 154.29 321.87C164.14 321.87 173.16 321.82 182.18 321.9C184.8 321.92 186.63 323.68 188.13 325.61C189.73 327.67 191.01 329.93 191.82 332.64C187.72 332.95 183.71 333.3 179.69 333.54C174.46 333.85 169.21 334.01 163.98 334.35C162.64 334.44 161.93 334.37 161.4 332.86L161.41 332.87ZM163.89 344.01C164.01 342.32 163.72 340.64 163.12 339.15C162.19 336.81 163.22 336.58 165.16 336.47C173.61 335.98 182.06 335.41 190.5 334.79C192.14 334.67 193.01 334.98 193.22 336.83C193.47 338.93 195 341.16 194.16 343.04C193.14 345.32 190.4 343.96 188.48 344.2C181.15 345.08 173.79 345.65 166.61 346.32C164.41 346.86 163.76 345.79 163.89 344V344.01ZM194.81 349.2C194.76 349.58 194.81 349.98 194.81 350.37C194.81 354.57 194.81 354.41 190.53 354.67C182.98 355.13 175.44 355.8 167.83 356.39C166.77 355.99 164.96 357.32 164.56 355.78C164.12 354.09 164.55 352.14 164.73 350.32C164.79 349.77 165.54 349.95 165.99 349.9C174.95 348.91 183.93 348.09 192.93 347.52C194.3 347.43 194.99 347.71 194.81 349.19V349.2ZM199.95 275.74C198.54 275.85 197.09 276.11 195.66 276.34C191.12 277.06 191.07 277.09 190.89 272.66C190.75 269.27 190.82 265.87 190.71 262.47C190.67 261.18 190.95 260.56 192.41 260.43C194.71 260.22 196.98 259.68 199.27 259.37C200.15 259.25 201.2 258.92 201.32 260.54C201.64 264.59 202.1 268.63 202.57 273.27C202.96 274.8 202.12 275.57 199.94 275.74H199.95Z" fill="#F1F1F1"/>
<path d="M308.48 218.59C307.41 195.51 307.83 172.33 306.96 149.18C309.4 172.1 309 195.14 309.91 218.12C309.92 218.46 309.23 218.77 308.48 218.59Z" fill="#E4E7F3"/>
<path d="M114.29 415.87C109.82 412.3 105.46 408.6 101.02 404.98C99.41 403.67 97.51 402.97 95.45 402.7C89.43 402.64 84.46 408.46 86.1 413.97C86.69 415.94 86.26 416.26 84.51 416.38C81.06 416.64 78.72 418.51 77.65 421.77C76.56 425.09 77.28 428.07 79.73 430.6C83.72 434.73 88.34 438.15 92.59 441.97C93.47 442.76 94.09 442.75 94.95 441.72C101.4 434.08 107.92 426.5 114.45 418.93C115.44 417.78 115.64 416.95 114.28 415.86L114.29 415.87ZM96.2 429.47C92.88 434.24 92.58 434.34 88.34 430.48C86.7 428.99 84.27 428.03 84.21 425.27C84.21 422.34 86.76 420.75 89.38 422.15C91.95 423.52 93.93 425.69 96.2 427.48C97.01 428.12 96.71 428.75 96.2 429.47ZM101.98 422.61C101.33 423.24 100.9 423.8 99.9 422.91C97.66 420.92 95.24 419.13 93.28 416.85C92.12 415.5 91.7 413.93 92.56 412.3C93.32 410.87 94.61 410.04 96.41 409.64C97.39 410.17 98.52 410.69 99.57 411.36C100.3 411.82 100.9 412.49 101.58 413.04C107.15 417.57 107.15 417.68 101.98 422.63V422.61Z" fill="#F1F1F1"/>
<path d="M487.5 312.83C485.56 305.72 477.55 300.79 468.73 300.78C456.27 300.18 450.69 314.51 453.68 322.87C455.64 328.36 459.96 331.35 465.25 333.03C471.48 335.01 477.62 335.22 482.63 330.17C487.41 325.36 489.29 319.43 487.49 312.83H487.5ZM481.27 320.85C479.99 324.99 477.18 327.04 471.18 327C469.24 326.97 465.96 325.83 463.02 323.87C459.43 321.48 458.28 316.96 460.05 313.01C461.71 309.29 466.19 307.09 470.23 308.07C472.87 308.71 475.51 309.34 477.8 310.92C481.24 313.29 482.5 316.88 481.27 320.84V320.85Z" fill="#F1F1F1"/>
<path d="M312.51 474.48C311.28 461.42 301.55 455.31 289.8 459.37C282.49 461.89 279.43 467.46 279.75 476.45C280.06 485.32 285.36 492.01 293.9 493.05C303.41 494.22 313 488.6 312.52 477.11C312.52 476.23 312.59 475.35 312.51 474.48ZM305.49 477.35C305.48 482.44 302.6 486.32 298.42 486.87C293.07 487.57 289.49 485.27 287.97 479.96C287.15 477.1 286.27 474.23 287.25 471.13C288.46 467.34 290.77 464.99 294.13 464.62C298.78 464.1 301.75 465.56 303.67 469.53C304.85 471.97 305.65 474.56 305.48 477.35H305.49Z" fill="#F1F1F1"/>
<path d="M467.62 148.99C458.87 149.13 448.05 155.17 448.23 165.2C448.41 175.48 454.76 182.65 464.12 182.66C474.66 182.67 483.38 175.32 483.4 166.38C483.42 156.67 476.52 148.85 467.62 148.99ZM472.98 172.26C470.03 174.25 466.3 175.55 463.53 175.56C459.62 175.57 456.58 173.52 455.24 169.96C453.95 166.52 454.85 162.53 457.72 160.18C460.71 157.74 464.18 156.29 468.1 156.22C472.35 156.15 475.24 158.33 476.49 162.43C477.73 166.49 476.52 169.86 472.97 172.26H472.98Z" fill="#F1F1F1"/>
<path d="M200.77 8.34996C194.79 4.80996 188.53 5.61996 182.8 9.07996C177.38 12.36 175.48 17.59 176.01 23.82C176.78 32.81 181.27 40.74 190.94 41.22C200.83 41.71 209.35 35.71 208.94 22.11C208.73 18.49 207.1 12.11 200.76 8.34996H200.77ZM194.76 35.01C190.93 35.92 186.88 33.63 184.9 29.46C183.44 26.39 182.99 23.14 183.31 19.79C183.61 16.67 186.22 13.67 189.17 12.9C193.46 11.77 196.75 12.79 198.97 15.99C200.98 18.88 201.57 22.2 201.81 24.92C201.85 30.45 199.21 33.96 194.76 35.02V35.01Z" fill="#F1F1F1"/>
<path d="M380.1 38.75C371.23 38.65 362.1 48.59 362.1 57.97C362.1 66.21 370.22 74.06 378.85 74.19C387.38 74.31 396.68 64.44 396.74 55.16C396.8 45.55 387.01 38.82 380.09 38.75H380.1ZM389.34 56.74C388.04 60.47 385.99 63.68 382.61 65.92C381.1 66.92 379.45 67.36 378.17 67.31C373.02 67.25 369.37 63.66 369.25 59.04C369.08 52.32 375.67 45.29 381.8 45.64C387.13 45.94 391.09 51.71 389.34 56.74Z" fill="#F1F1F1"/>
<path d="M145.7 437.62C144.12 436.38 142.35 435.21 140.46 434.59C139.12 434.15 138.44 436.14 137.2 436.68C136.69 436.91 136.26 437.37 135.86 437.79C134.67 439.05 133.54 439.16 132.05 438.12C129.83 436.57 127.5 435.14 125.09 433.9C123.08 432.86 122.67 431.65 123.27 429.45C124.62 424.43 124.49 424.4 120.3 421.89C117.74 420.36 117.49 420.55 117.04 423.48C116.18 429.03 115.19 434.55 114.26 440.09C113.43 445.06 112.6 450.02 111.74 455.19C111.44 455.89 111.91 456.49 112.54 457.01C116.35 460.2 117.75 460.24 121.66 457.26C122.51 456.61 123.33 455.93 124.18 455.29C131.05 450.07 137.95 444.88 144.76 439.58C145.19 439.24 147.28 438.88 145.69 437.63L145.7 437.62ZM122.95 448C121.98 448.91 120.87 449.65 119.16 450.99C120.07 446.49 120.82 442.72 121.65 438.6C124.19 440.29 127.69 441.4 128.11 443.23C128.53 445.03 124.74 446.31 122.95 448Z" fill="#F1F1F1"/>
<path d="M384.44 454.57C379.42 446.17 374.43 437.75 369.51 429.29C368.78 428.04 368.22 427.57 366.86 428.42C361.85 431.54 356.77 434.57 351.77 437.7C349 439.43 347.86 442.14 347.61 445.41C347.87 448.34 348.92 450.98 351.21 453.02C355.21 456.58 359.24 456.64 365.14 453.27C367.57 451.88 370.25 449.12 372.39 449.48C374.88 449.9 375.65 453.89 377.14 456.34C379.62 460.42 379.5 460.31 383.7 457.92C385.53 456.88 385.33 456.05 384.46 454.58L384.44 454.57ZM367.67 444.84C364.89 446.33 362.36 448.37 359.53 448.88C357.37 448.96 356.06 448.22 355.44 446.6C354.77 444.84 354.92 443.02 356.52 441.87C359.02 440.08 361.7 438.52 364.3 436.87C364.46 436.77 364.71 436.59 364.81 436.64C367.14 437.94 367.64 440.56 369 442.56C369.93 443.92 368.57 444.36 367.66 444.85L367.67 444.84Z" fill="#F1F1F1"/>
<path d="M494.95 271.5C485.97 270.54 477.01 269.48 468.03 268.52C462.99 267.98 463.01 268.04 462.41 272.91C462.24 274.27 462.35 275.01 464.09 275.11C467.09 275.28 470.06 275.91 473.06 276.17C474.34 276.28 474.77 276.63 474.62 277.91C474.34 280.32 474.16 282.75 473.94 285.17C473.97 285.17 474 285.17 474.03 285.17C474.03 285.46 474.03 285.75 474.03 286.05C474.06 292.05 477.4 295.53 483.94 296.39C489.14 297.08 493.39 294.14 494.53 288.66C495.6 283.53 496.13 278.3 496.45 273.06C496.52 271.92 496.05 271.61 494.94 271.49L494.95 271.5ZM489.44 282.23C489.25 283.37 489.23 284.55 488.9 285.64C488.17 288.02 486.66 289.48 483.96 289.05C481.44 288.65 480.4 287 480.36 284.57C480.35 283.7 480.36 282.83 480.36 281.96C480.83 276.79 481.09 276.6 486.4 277.64C488.867 278.12 489.883 279.647 489.45 282.22L489.44 282.23Z" fill="#F1F1F1"/>
<path d="M54.2001 151.21C51.9101 150.16 49.7901 148.73 47.4601 147.8C45.5901 147.05 45.8201 146.33 46.6001 144.82C48.3201 141.49 50.4301 138.26 50.5001 134.31C50.5401 129.51 47.5701 125.59 42.8201 124.18C38.1201 122.78 34.2301 124.1 31.5701 128.46C29.0501 132.59 26.9701 136.99 24.5501 141.19C23.5901 142.85 23.8101 143.58 25.5401 144.46C34.2601 148.88 42.9201 153.39 51.5601 157.97C53.1601 158.82 54.0001 158.63 54.5901 156.96C54.8201 156.33 55.1501 155.71 55.5401 155.17C56.9401 153.2 56.1501 152.12 54.1901 151.23L54.2001 151.21ZM43.6701 136.43C42.9801 138.72 41.7801 140.85 40.7801 143.04C40.3501 143.99 39.7201 143.92 38.9301 143.38C38.2201 142.89 37.3401 142.65 36.6501 142.13C35.2801 141.11 32.7901 141.27 32.5801 139.16C32.3801 137.13 36.6901 131.61 38.3201 131.17C38.6901 131.07 39.0901 131.1 39.2201 131.09C42.2301 131.11 44.4801 133.75 43.6701 136.42V136.43Z" fill="#F1F1F1"/>
<path d="M164.69 446.42C164.13 446.28 163.52 446.13 163.07 445.8C161.6 444.72 161.06 445.57 160.54 446.83C159.47 449.42 158.24 451.94 157.26 454.56C156.66 456.17 156.06 456.61 154.35 455.79C151.06 454.2 147.69 452.7 144.26 452.36C139.19 452.42 135.41 455.7 133.99 461C132.82 465.4 134.53 469.36 138.76 471.76C143.05 474.19 147.74 475.78 152.15 477.94C154.16 478.92 154.8 478.19 155.5 476.53C159.13 467.99 162.7 459.43 166.56 450.99C167.75 448.38 167.43 447.09 164.68 446.42H164.69ZM149.88 470.36C147.5 470.69 141.25 465.97 141.14 463.76C141.02 461.34 142.97 459.16 145.32 459.08C147.3 459.01 153.63 461.79 153.62 462.73C153.62 463.61 150.34 470.29 149.88 470.36Z" fill="#F1F1F1"/>
<path d="M322.55 215.48C320.82 204.66 318.97 193.87 317.26 183.05C314.8 167.54 312.41 152.01 310.05 136.48C309.91 135.54 309.81 135.18 308.73 135.24C305.68 135.39 303.86 133.51 302.75 130.96C300.75 126.34 301.38 121.92 304.42 117.78C301.39 117.96 298.5 120.55 297.74 123.68C295.97 131.02 294.25 138.37 292.51 145.72C292.36 145.99 292.2 146.25 292.05 146.52C292.14 146.49 292.22 146.45 292.31 146.43C288.25 163.74 284.18 181.06 280.15 198.38C275.63 217.78 271.19 237.19 266.63 256.58C264.26 266.65 261.73 276.67 259.27 286.71C259.27 286.74 259.27 286.77 259.27 286.8C258.86 290.92 259.03 295.03 259.45 299.18C266.06 271.59 272.36 243.96 278.73 216.36C285.12 188.7 291.59 161.06 298.11 133.06C299.64 136 301.21 138.44 304.35 139.2C305.25 139.42 305.19 140.18 305.23 140.83C305.31 142.09 305.38 143.36 305.39 144.63C305.53 163.06 305.88 181.48 306.55 199.9C306.77 205.84 307.21 211.86 306.49 217.72C306.01 221.63 305.91 225.2 307.15 228.88C307.83 230.89 308.38 232.95 308.95 235C310.4 240.24 314.31 242.35 319.7 240.49C316.8 237.85 314.39 235.02 313.73 231.09C313.38 229 312.68 226.97 312.18 224.9C311.69 222.91 310.36 220.87 312.45 218.97C312.72 218.72 312.8 218.09 312.34 218.03C310.49 217.76 311.42 216.35 311.38 215.53C311.17 211.64 311.07 207.74 311.03 203.84C310.93 193.82 309.86 183.83 310.24 173.1C310.71 174.87 311.08 175.95 311.28 177.07C313.65 190.13 315.99 203.19 318.34 216.26C318.45 216.89 318.21 217.8 319.3 217.65C320.51 217.49 319.81 216.68 319.72 216.1C317.24 201.39 314.76 186.68 312.27 171.97C310.93 164.05 308.89 156.21 309.88 147.8C310.49 151.45 311.05 154.86 311.63 158.28C313.09 166.88 314.59 175.47 316 184.08C317.72 194.59 319.35 205.12 321.08 215.64C321.2 216.39 320.66 218.04 322.3 217.69C323.65 217.4 322.66 216.2 322.55 215.5V215.48Z" fill="#F1F1F1"/>
</svg>
