<svg width="64" height="67" viewBox="0 0 64 67" fill="none" xmlns="http://www.w3.org/2000/svg">
<path d="M48.426 39.2708L52.12 31.3513L28.3389 3.68463L22.5078 15.3799L43.135 39.1017" stroke="#3C8801" stroke-width="2" stroke-linejoin="bevel"/>
<path d="M39.9308 38.9849L20.6089 17.2773L13.6221 18.3886L18.691 24.6074" stroke="#3C8801" stroke-width="2" stroke-linejoin="bevel"/>
<path d="M13.0781 15.7024L19.8399 14.3294L25.8959 2.89586L19.6368 3.76662L13.0781 15.7024Z" stroke="#3C8801" stroke-width="2" stroke-linejoin="bevel"/>
<path d="M34.7238 38.8072L57.4507 40.2696L53.0914 51.9089L28.1986 50.1092" stroke="#DC7700" stroke-width="2" stroke-linejoin="bevel"/>
<path d="M26.7837 52.7564L52.9217 54.5469L56.1352 60.7136L24.6324 58.6864L23.7837 57.9526" stroke="#DC7700" stroke-width="2" stroke-linejoin="bevel"/>
<path d="M58.1986 59.5218L55.2831 53.3743L59.3443 41.7158L62.3048 47.1651L58.1986 59.5218Z" stroke="#DC7700" stroke-width="2" stroke-linejoin="bevel"/>
<path d="M11.3795 53.5296L27.5622 25.5004L36.7436 35.5977L20.8205 63.1773L11.3795 53.5296Z" stroke="#03AEAE" stroke-width="2" stroke-linejoin="bevel"/>
<path d="M8.78142 52.0296L24.9641 24.0004L17.691 24.5977L1.76796 52.1773L8.78142 52.0296Z" stroke="#03AEAE" stroke-width="2" stroke-linejoin="bevel"/>
<path d="M2.5 54.9094L9.19615 55.3113L18.0885 63.9094L12.0036 63.8604L2.5 54.9094Z" stroke="#03AEAE" stroke-width="2" stroke-linejoin="bevel"/>
</svg>
