<svg width="57" height="44" viewBox="0 0 57 44" fill="none" xmlns="http://www.w3.org/2000/svg">
<path d="M2 2V42H54" stroke="#03AEAE" stroke-width="3" stroke-linecap="round" stroke-linejoin="round"/>
<path d="M5.20051 36.3993C4.86876 36.8409 4.95778 37.4677 5.39932 37.7995C5.84087 38.1312 6.46775 38.0422 6.79949 37.6007L5.20051 36.3993ZM23.1818 14.1311L23.9779 13.5259L23.1771 12.4726L22.3823 13.5305L23.1818 14.1311ZM37.0909 32.4262L36.2948 33.0314L37.2448 34.2809L37.9758 32.892L37.0909 32.4262ZM45.6667 6C45.6667 8.94552 48.0545 11.3333 51 11.3333C53.9455 11.3333 56.3333 8.94552 56.3333 6C56.3333 3.05448 53.9455 0.666667 51 0.666667C48.0545 0.666667 45.6667 3.05448 45.6667 6ZM6.79949 37.6007L23.9813 14.7318L22.3823 13.5305L5.20051 36.3993L6.79949 37.6007ZM22.3858 14.7364L36.2948 33.0314L37.887 31.821L23.9779 13.5259L22.3858 14.7364ZM37.9758 32.892L51.8849 6.46576L50.1151 5.53424L36.206 31.9605L37.9758 32.892Z" fill="#3C8801"/>
<path d="M3.66667 11C3.66667 13.9455 6.05448 16.3333 9 16.3333C11.9455 16.3333 14.3333 13.9455 14.3333 11C14.3333 8.05448 11.9455 5.66667 9 5.66667C6.05448 5.66667 3.66667 8.05448 3.66667 11ZM24.2981 33.4314L23.4719 33.9948L24.1938 35.0533L25.0453 34.096L24.2981 33.4314ZM38.3558 17.6275L39.1733 17.0516L38.447 16.0203L37.6086 16.9628L38.3558 17.6275ZM51.1824 37.5758C51.5004 38.0274 52.1243 38.1356 52.5758 37.8176C53.0274 37.4996 53.1356 36.8757 52.8176 36.4242L51.1824 37.5758ZM8.17384 11.5634L23.4719 33.9948L25.1242 32.8679L9.82616 10.4366L8.17384 11.5634ZM25.0453 34.096L39.1029 18.2921L37.6086 16.9628L23.5509 32.7668L25.0453 34.096ZM37.5382 18.2033L51.1824 37.5758L52.8176 36.4242L39.1733 17.0516L37.5382 18.2033Z" fill="#DC7700"/>
</svg>
