<svg width="65" height="89" viewBox="0 0 65 89" fill="none" xmlns="http://www.w3.org/2000/svg">
<circle cx="38.3517" cy="33.7889" r="7.28895" stroke="#3C8801" stroke-width="3"/>
<path d="M8.78894 41.7789C8.78894 41.7789 8.78894 58.5578 8.78894 67.7462C8.78894 80.5302 30.7613 80.5302 30.7613 80.5302" stroke="#DC7700" stroke-width="3"/>
<line x1="39.8517" y1="40.1809" x2="39.8517" y2="70.5427" stroke="#3C8801" stroke-width="3"/>
<circle cx="38.3517" cy="79.3317" r="7.28895" stroke="#03AEAE" stroke-width="3"/>
<circle cx="8.78895" cy="33.7889" r="7.28895" stroke="#DC7700" stroke-width="3"/>
<path d="M55.3517 46.3417C55.3517 46.3417 55.3517 29.5628 55.3517 20.3744C55.3517 7.59045 33.3794 7.59045 33.3794 7.59045" stroke="#03AEAE" stroke-width="3"/>
<line x1="24.2889" y1="47.9397" x2="24.2889" y2="17.5779" stroke="#03AEAE" stroke-width="3"/>
<circle cx="25.7889" cy="8.78893" r="7.28895" transform="rotate(-180 25.7889 8.78893)" stroke="#03AEAE" stroke-width="3"/>
<circle cx="25.7889" cy="54.3317" r="7.28895" transform="rotate(-180 25.7889 54.3317)" stroke="#3C8801" stroke-width="3"/>
<circle cx="55.3518" cy="54.3317" r="7.28895" transform="rotate(-180 55.3518 54.3317)" stroke="#DC7700" stroke-width="3"/>
</svg>
