<svg width="42" height="31" viewBox="0 0 42 31" fill="none" xmlns="http://www.w3.org/2000/svg">
<path d="M10 14C9.44772 14 9 14.4477 9 15C9 15.5523 9.44772 16 10 16L10 14ZM33.7071 15.7071C34.0976 15.3166 34.0976 14.6834 33.7071 14.2929L27.3431 7.92894C26.9526 7.53841 26.3195 7.53841 25.9289 7.92893C25.5384 8.31946 25.5384 8.95262 25.9289 9.34315L31.5858 15L25.9289 20.6569C25.5384 21.0474 25.5384 21.6805 25.9289 22.0711C26.3195 22.4616 26.9526 22.4616 27.3431 22.0711L33.7071 15.7071ZM10 16L33 16L33 14L10 14L10 16Z" fill="#03AEAE"/>
<path d="M30.4067 5.67792C30.4067 5.67792 19.7288 5.67792 13.8813 5.67792C5.74572 5.67792 5.74572 19.661 5.74572 19.661" stroke="#03AEAE" stroke-width="2"/>
<line x1="30.9998" y1="25" x2="10.9998" y2="25" stroke="#03AEAE" stroke-width="2"/>
<circle cx="6.50846" cy="24.4915" r="4.59322" transform="rotate(90 6.50846 24.4915)" stroke="#03AEAE" stroke-width="2"/>
<circle cx="35.4915" cy="24.4915" r="4.59322" transform="rotate(90 35.4915 24.4915)" stroke="#3C8801" stroke-width="2"/>
<circle cx="35.4915" cy="5.67794" r="4.59322" transform="rotate(90 35.4915 5.67794)" stroke="#DC7700" stroke-width="2"/>
</svg>
