<svg width="50" height="48" viewBox="0 0 50 48" fill="none" xmlns="http://www.w3.org/2000/svg">
<rect x="7" y="7" width="11" height="11" rx="1" fill="#4CC4C4"/>
<rect x="21" y="7" width="11" height="11" rx="1" fill="#74A94B"/>
<rect x="7" y="21" width="11" height="2" rx="1" fill="#D9D9D9"/>
<rect x="7" y="24" width="11" height="2" rx="1" fill="#D9D9D9"/>
<rect x="7" y="27" width="11" height="2" rx="1" fill="#D9D9D9"/>
<rect x="7" y="30" width="11" height="2" rx="1" fill="#D9D9D9"/>
<rect x="21" y="21" width="11" height="11" rx="1" fill="#DC7700"/>
<path d="M35 47H5C2.79086 47 1 45.2091 1 43V5C1 2.79086 2.79086 1 5 1H29.0365C30.0368 1 31.0007 1.37479 31.7383 2.05046L37.7019 7.51328C38.529 8.27096 39 9.34112 39 10.4628V43C39 45.2091 37.2091 47 35 47Z" stroke="#DC7700" stroke-width="2"/>
<mask id="path-9-outside-1_549_309" maskUnits="userSpaceOnUse" x="18" y="25" width="33" height="14" fill="black">
<rect fill="white" x="18" y="25" width="33" height="14"/>
<path d="M19.3317 38V26.3636H23.9226C24.8052 26.3636 25.5571 26.5322 26.1783 26.8693C26.7995 27.2027 27.273 27.6667 27.5987 28.2614C27.9283 28.8523 28.093 29.5341 28.093 30.3068C28.093 31.0795 27.9264 31.7614 27.593 32.3523C27.2597 32.9432 26.7768 33.4034 26.1442 33.733C25.5154 34.0625 24.754 34.2273 23.8601 34.2273H20.9339V32.2557H23.4624C23.9358 32.2557 24.326 32.1742 24.6328 32.0114C24.9434 31.8447 25.1745 31.6155 25.326 31.3239C25.4813 31.0284 25.5589 30.6894 25.5589 30.3068C25.5589 29.9205 25.4813 29.5833 25.326 29.2955C25.1745 29.0038 24.9434 28.7784 24.6328 28.6193C24.3222 28.4564 23.9283 28.375 23.451 28.375H21.7919V38H19.3317ZM33.8161 38H29.6911V26.3636H33.8501C35.0206 26.3636 36.0282 26.5966 36.8729 27.0625C37.7176 27.5246 38.3672 28.1894 38.8217 29.0568C39.2801 29.9242 39.5092 30.9621 39.5092 32.1705C39.5092 33.3826 39.2801 34.4242 38.8217 35.2955C38.3672 36.1667 37.7138 36.8352 36.8615 37.3011C36.013 37.767 34.9979 38 33.8161 38ZM32.1513 35.892H33.7138C34.4411 35.892 35.0528 35.7633 35.549 35.5057C36.049 35.2443 36.424 34.8409 36.674 34.2955C36.9278 33.7462 37.0547 33.0379 37.0547 32.1705C37.0547 31.3106 36.9278 30.608 36.674 30.0625C36.424 29.517 36.0509 29.1155 35.5547 28.858C35.0585 28.6004 34.4467 28.4716 33.7195 28.4716H32.1513V35.892ZM41.3317 38V26.3636H49.0362V28.392H43.7919V31.1648H48.5249V33.1932H43.7919V38H41.3317Z"/>
</mask>
<path d="M19.3317 38V26.3636H23.9226C24.8052 26.3636 25.5571 26.5322 26.1783 26.8693C26.7995 27.2027 27.273 27.6667 27.5987 28.2614C27.9283 28.8523 28.093 29.5341 28.093 30.3068C28.093 31.0795 27.9264 31.7614 27.593 32.3523C27.2597 32.9432 26.7768 33.4034 26.1442 33.733C25.5154 34.0625 24.754 34.2273 23.8601 34.2273H20.9339V32.2557H23.4624C23.9358 32.2557 24.326 32.1742 24.6328 32.0114C24.9434 31.8447 25.1745 31.6155 25.326 31.3239C25.4813 31.0284 25.5589 30.6894 25.5589 30.3068C25.5589 29.9205 25.4813 29.5833 25.326 29.2955C25.1745 29.0038 24.9434 28.7784 24.6328 28.6193C24.3222 28.4564 23.9283 28.375 23.451 28.375H21.7919V38H19.3317ZM33.8161 38H29.6911V26.3636H33.8501C35.0206 26.3636 36.0282 26.5966 36.8729 27.0625C37.7176 27.5246 38.3672 28.1894 38.8217 29.0568C39.2801 29.9242 39.5092 30.9621 39.5092 32.1705C39.5092 33.3826 39.2801 34.4242 38.8217 35.2955C38.3672 36.1667 37.7138 36.8352 36.8615 37.3011C36.013 37.767 34.9979 38 33.8161 38ZM32.1513 35.892H33.7138C34.4411 35.892 35.0528 35.7633 35.549 35.5057C36.049 35.2443 36.424 34.8409 36.674 34.2955C36.9278 33.7462 37.0547 33.0379 37.0547 32.1705C37.0547 31.3106 36.9278 30.608 36.674 30.0625C36.424 29.517 36.0509 29.1155 35.5547 28.858C35.0585 28.6004 34.4467 28.4716 33.7195 28.4716H32.1513V35.892ZM41.3317 38V26.3636H49.0362V28.392H43.7919V31.1648H48.5249V33.1932H43.7919V38H41.3317Z" fill="#FFFEFE"/>
<path d="M19.3317 38H18.3317V39H19.3317V38ZM19.3317 26.3636V25.3636H18.3317V26.3636H19.3317ZM26.1783 26.8693L25.7013 27.7482L25.7054 27.7505L26.1783 26.8693ZM27.5987 28.2614L26.7217 28.7418L26.7254 28.7484L27.5987 28.2614ZM26.1442 33.733L25.6822 32.8461L25.68 32.8472L26.1442 33.733ZM20.9339 34.2273H19.9339V35.2273H20.9339V34.2273ZM20.9339 32.2557V31.2557H19.9339V32.2557H20.9339ZM24.6328 32.0114L25.1017 32.8946L25.1056 32.8925L24.6328 32.0114ZM25.326 31.3239L24.4408 30.8586L24.4386 30.8629L25.326 31.3239ZM25.326 29.2955L24.4386 29.7564L24.4422 29.7634L24.4459 29.7702L25.326 29.2955ZM24.6328 28.6193L24.1684 29.505L24.1769 29.5094L24.6328 28.6193ZM21.7919 28.375V27.375H20.7919V28.375H21.7919ZM21.7919 38V39H22.7919V38H21.7919ZM20.3317 38V26.3636H18.3317V38H20.3317ZM19.3317 27.3636H23.9226V25.3636H19.3317V27.3636ZM23.9226 27.3636C24.6793 27.3636 25.2586 27.508 25.7013 27.7482L26.6552 25.9904C25.8555 25.5564 24.931 25.3636 23.9226 25.3636V27.3636ZM25.7054 27.7505C26.1631 27.996 26.4928 28.324 26.7217 28.7418L28.4758 27.7809C28.0531 27.0094 27.4359 26.4093 26.6511 25.9882L25.7054 27.7505ZM26.7254 28.7484C26.9607 29.1704 27.093 29.68 27.093 30.3068H29.093C29.093 29.3881 28.8959 28.5342 28.4721 27.7743L26.7254 28.7484ZM27.093 30.3068C27.093 30.9317 26.9596 31.4398 26.7221 31.861L28.464 32.8436C28.8931 32.0829 29.093 31.2274 29.093 30.3068H27.093ZM26.7221 31.861C26.4889 32.2743 26.1523 32.6012 25.6822 32.8461L26.6062 34.6198C27.4012 34.2056 28.0305 33.6121 28.464 32.8436L26.7221 31.861ZM25.68 32.8472C25.2268 33.0847 24.6333 33.2273 23.8601 33.2273V35.2273C24.8747 35.2273 25.804 35.0403 26.6084 34.6187L25.68 32.8472ZM23.8601 33.2273H20.9339V35.2273H23.8601V33.2273ZM21.9339 34.2273V32.2557H19.9339V34.2273H21.9339ZM20.9339 33.2557H23.4624V31.2557H20.9339V33.2557ZM23.4624 33.2557C24.0428 33.2557 24.6077 33.1569 25.1017 32.8946L24.1639 31.1281C24.0443 31.1916 23.8289 31.2557 23.4624 31.2557V33.2557ZM25.1056 32.8925C25.58 32.638 25.9623 32.2682 26.2134 31.7849L24.4386 30.8629C24.3867 30.9628 24.3068 31.0514 24.16 31.1302L25.1056 32.8925ZM26.2112 31.7891C26.4523 31.3305 26.5589 30.8276 26.5589 30.3068H24.5589C24.5589 30.5512 24.5103 30.7264 24.4408 30.8586L26.2112 31.7891ZM26.5589 30.3068C26.5589 29.7847 26.4532 29.2788 26.2061 28.8207L24.4459 29.7702C24.5094 29.8879 24.5589 30.0562 24.5589 30.3068H26.5589ZM26.2134 28.8345C25.96 28.3467 25.5721 27.9769 25.0887 27.7293L24.1769 29.5094C24.3147 29.5799 24.3889 29.6609 24.4386 29.7564L26.2134 28.8345ZM25.0972 27.7337C24.6011 27.4735 24.0344 27.375 23.451 27.375V29.375C23.8221 29.375 24.0433 29.4393 24.1684 29.5049L25.0972 27.7337ZM23.451 27.375H21.7919V29.375H23.451V27.375ZM20.7919 28.375V38H22.7919V28.375H20.7919ZM21.7919 37H19.3317V39H21.7919V37ZM29.6911 38H28.6911V39H29.6911V38ZM29.6911 26.3636V25.3636H28.6911V26.3636H29.6911ZM36.8729 27.0625L36.3899 27.9381L36.3929 27.9398L36.8729 27.0625ZM38.8217 29.0568L37.936 29.521L37.9376 29.524L38.8217 29.0568ZM38.8217 35.2955L37.9367 34.8299L37.9351 34.8329L38.8217 35.2955ZM36.8615 37.3011L36.3818 36.4237L36.3802 36.4246L36.8615 37.3011ZM32.1513 35.892H31.1513V36.892H32.1513V35.892ZM35.549 35.5057L36.0097 36.3932L36.0123 36.3919L35.549 35.5057ZM36.674 34.2955L35.7662 33.876L35.7649 33.8788L36.674 34.2955ZM36.674 30.0625L35.7649 30.4792L35.7673 30.4844L36.674 30.0625ZM35.5547 28.858L36.0154 27.9704L36.0154 27.9704L35.5547 28.858ZM32.1513 28.4716V27.4716H31.1513V28.4716H32.1513ZM33.8161 37H29.6911V39H33.8161V37ZM30.6911 38V26.3636H28.6911V38H30.6911ZM29.6911 27.3636H33.8501V25.3636H29.6911V27.3636ZM33.8501 27.3636C34.8875 27.3636 35.7216 27.5695 36.3899 27.9381L37.3558 26.1869C36.3348 25.6237 35.1537 25.3636 33.8501 25.3636V27.3636ZM36.3929 27.9398C37.0614 28.3055 37.5713 28.8251 37.936 29.521L39.7075 28.5927C39.1631 27.5537 38.3737 26.7437 37.3528 26.1852L36.3929 27.9398ZM37.9376 29.524C38.3042 30.2178 38.5092 31.0878 38.5092 32.1705H40.5092C40.5092 30.8365 40.256 29.6307 39.7059 28.5896L37.9376 29.524ZM38.5092 32.1705C38.5092 33.2573 38.304 34.1317 37.9367 34.8299L39.7067 35.761C40.2561 34.7168 40.5092 33.5078 40.5092 32.1705H38.5092ZM37.9351 34.8329C37.571 35.5308 37.0582 36.0539 36.3818 36.4237L37.3412 38.1786C38.3693 37.6165 39.1633 36.8026 39.7083 35.758L37.9351 34.8329ZM36.3802 36.4246C35.7084 36.7935 34.8665 37 33.8161 37V39C35.1293 39 36.3176 38.7406 37.3428 38.1777L36.3802 36.4246ZM32.1513 36.892H33.7138V34.892H32.1513V36.892ZM33.7138 36.892C34.5548 36.892 35.3349 36.7435 36.0097 36.3932L35.0883 34.6181C34.7707 34.783 34.3273 34.892 33.7138 34.892V36.892ZM36.0123 36.3919C36.7218 36.021 37.2469 35.4455 37.5831 34.7121L35.7649 33.8788C35.6011 34.2363 35.3762 34.4676 35.0858 34.6195L36.0123 36.3919ZM37.5818 34.7149C37.9167 33.99 38.0547 33.1245 38.0547 32.1705H36.0547C36.0547 32.9512 35.9388 33.5024 35.7662 33.876L37.5818 34.7149ZM38.0547 32.1705C38.0547 31.2229 37.9165 30.3623 37.5807 29.6406L35.7673 30.4844C35.9391 30.8536 36.0547 31.3983 36.0547 32.1705H38.0547ZM37.5831 29.6458C37.2475 28.9137 36.7243 28.3384 36.0154 27.9704L35.094 29.7455C35.3775 29.8927 35.6005 30.1204 35.7649 30.4792L37.5831 29.6458ZM36.0154 27.9704C35.3405 27.6201 34.5605 27.4716 33.7195 27.4716V29.4716C34.333 29.4716 34.7764 29.5807 35.094 29.7455L36.0154 27.9704ZM33.7195 27.4716H32.1513V29.4716H33.7195V27.4716ZM31.1513 28.4716V35.892H33.1513V28.4716H31.1513ZM41.3317 38H40.3317V39H41.3317V38ZM41.3317 26.3636V25.3636H40.3317V26.3636H41.3317ZM49.0362 26.3636H50.0362V25.3636H49.0362V26.3636ZM49.0362 28.392V29.392H50.0362V28.392H49.0362ZM43.7919 28.392V27.392H42.7919V28.392H43.7919ZM43.7919 31.1648H42.7919V32.1648H43.7919V31.1648ZM48.5249 31.1648H49.5249V30.1648H48.5249V31.1648ZM48.5249 33.1932V34.1932H49.5249V33.1932H48.5249ZM43.7919 33.1932V32.1932H42.7919V33.1932H43.7919ZM43.7919 38V39H44.7919V38H43.7919ZM42.3317 38V26.3636H40.3317V38H42.3317ZM41.3317 27.3636H49.0362V25.3636H41.3317V27.3636ZM48.0362 26.3636V28.392H50.0362V26.3636H48.0362ZM49.0362 27.392H43.7919V29.392H49.0362V27.392ZM42.7919 28.392V31.1648H44.7919V28.392H42.7919ZM43.7919 32.1648H48.5249V30.1648H43.7919V32.1648ZM47.5249 31.1648V33.1932H49.5249V31.1648H47.5249ZM48.5249 32.1932H43.7919V34.1932H48.5249V32.1932ZM42.7919 33.1932V38H44.7919V33.1932H42.7919ZM43.7919 37H41.3317V39H43.7919V37Z" fill="#DC7700" mask="url(#path-9-outside-1_549_309)"/>
</svg>
