<?xml version="1.0" encoding="UTF-8"?>
<svg id="Layer_2" data-name="Layer 2" xmlns="http://www.w3.org/2000/svg" viewBox="0 0 49.62 65.81">
  <defs>
    <style>
      .cls-1 {
        fill: #fff;
      }
    </style>
  </defs>
  <g id="Layer_1-2" data-name="Layer 1">
    <path class="cls-1" d="M48.59,17.46L32.16,1.03c-.66-.66-1.56-1.03-2.49-1.03H3.52C1.58,0,0,1.58,0,3.52V62.29c0,1.94,1.58,3.52,3.52,3.52H46.1c1.94,0,3.52-1.58,3.52-3.52V19.95c0-.93-.37-1.83-1.03-2.49Zm-6.8,2.01h-11.33c-.85,0-1.55-.69-1.55-1.55V6.6c0-1.38,1.67-2.07,2.64-1.09l11.33,11.33c.97,.97,.28,2.64-1.09,2.64Z"/>
  </g>
</svg>