<?xml version="1.0" encoding="UTF-8"?>
<svg id="Layer_2" data-name="Layer 2" xmlns="http://www.w3.org/2000/svg" viewBox="0 0 70.43 48.94">
  <defs>
    <style>
      .cls-1 {
        fill: #fff;
      }
    </style>
  </defs>
  <g id="Layer_1-2" data-name="Layer 1">
    <path class="cls-1" d="M41.14,16.02h27.39c1.05,0,1.89-.85,1.89-1.89V1.89c0-1.05-.85-1.89-1.89-1.89h-27.39c-1.05,0-1.89,.85-1.89,1.89V6.22c-4.55,.55-10.51,2.17-15.06,6.6-1.12,1.09-2.22,2.34-3.25,3.64H1.89c-1.05,0-1.89,.85-1.89,1.89v12.23c0,1.05,.85,1.89,1.89,1.89H20.7c1.09,1.4,2.28,2.77,3.49,3.94,4.55,4.43,10.51,6.04,15.06,6.59v4.03c0,1.05,.85,1.89,1.89,1.89h27.39c1.05,0,1.89-.85,1.89-1.89v-12.23c0-1.05-.85-1.89-1.89-1.89h-27.39c-1.05,0-1.89,.85-1.89,1.89v6.53c-4.26-.54-9.74-2.06-13.9-6.11-.88-.85-1.72-1.79-2.52-2.75h6.46c1.05,0,1.89-.85,1.89-1.89v-12.23c0-1.05-.85-1.89-1.89-1.89h-6.21c.72-.85,1.48-1.68,2.27-2.45,4.16-4.05,9.64-5.58,13.9-6.11v6.23c0,1.05,.85,1.89,1.89,1.89Z"/>
  </g>
</svg>