<?xml version="1.0" encoding="UTF-8"?>
<svg id="Layer_2" data-name="Layer 2" xmlns="http://www.w3.org/2000/svg" viewBox="0 0 83.2 69.03">
  <defs>
    <style>
      .cls-1 {
        fill: #fff;
      }
    </style>
  </defs>
  <g id="Layer_1-2" data-name="Layer 1">
    <path class="cls-1" d="M80.77,23.57L45.15,1c-1.06-.67-2.3-1-3.55-1s-2.49,.33-3.55,1L2.43,23.57c-2.08,1.31-2.93,3.62-2.13,5.73,.81,2.1,3.1,3.52,5.68,3.52h.69v31.09c0,2.83,2.68,5.13,5.98,5.13h57.91c3.3,0,5.98-2.29,5.98-5.13v-31.09h.69c2.58,0,4.87-1.42,5.68-3.52,.81-2.1-.05-4.41-2.13-5.73Zm-10.22,4.12V63.9h-18.07V28.89H30.71V63.9H12.64V27.69H5.98L41.6,5.13l35.62,22.57h-6.67Z"/>
  </g>
</svg>