<?xml version="1.0" encoding="UTF-8"?>
<svg id="Layer_2" data-name="Layer 2" xmlns="http://www.w3.org/2000/svg" viewBox="0 0 71.3 63.44">
  <defs>
    <style>
      .cls-1 {
        fill: #fff;
      }
    </style>
  </defs>
  <g id="Layer_1-2" data-name="Layer 1">
    <path class="cls-1" d="M69.5,16.81h-2.28c-.22,0-.44,.05-.63,.12V2.85c0-1.57-1.27-2.85-2.85-2.85H2.85C1.27,0,0,1.27,0,2.85V43.78c0,1.57,1.27,2.85,2.85,2.85h5.31v15.01c0,.99,.8,1.8,1.8,1.8h59.55c.99,0,1.8-.8,1.8-1.8V18.61c0-.99-.8-1.8-1.8-1.8Zm-9.28,4.94H14.41c-1.35,0-2.45-1.01-2.62-2.3H60.22v2.3ZM11.75,14.53c0-1.47,1.19-2.66,2.66-2.66H60.22v3.32H11.75v-.67Zm53.67,41.86c0,1.47-1.19,2.66-2.66,2.66H14.41c-1.47,0-2.66-1.19-2.66-2.66v-.16h53.67v.16Zm0-4.4H11.75v-.16c0-1.47,1.19-2.66,2.66-2.66H62.77c1.47,0,2.66,1.19,2.66,2.66v.16Zm0-10.64H11.75v-11.66c0-1.35,1.09-2.44,2.44-2.44H62.99c1.35,0,2.44,1.09,2.44,2.44v11.66Z"/>
  </g>
</svg>