<?xml version="1.0" encoding="UTF-8"?>
<svg id="Layer_2" data-name="Layer 2" xmlns="http://www.w3.org/2000/svg" viewBox="0 0 61.27 54.14">
  <defs>
    <style>
      .cls-1 {
        fill: #fff;
      }
    </style>
  </defs>
  <g id="Layer_1-2" data-name="Layer 1">
    <path class="cls-1" d="M54.18,0H7.09C3.18,0,0,3.18,0,7.09V47.04c0,3.92,3.18,7.09,7.09,7.09H54.18c3.92,0,7.09-3.18,7.09-7.09V7.09c0-3.92-3.18-7.09-7.09-7.09ZM27.04,6.17h26.48c.86,0,1.56,.7,1.56,1.56s-.7,1.56-1.56,1.56H27.04c-.86,0-1.56-.7-1.56-1.56s.7-1.56,1.56-1.56Zm28.04,8.05c0,.86-.7,1.56-1.56,1.56h-15.09c-.86,0-1.56-.7-1.56-1.56s.7-1.56,1.56-1.56h15.09c.86,0,1.56,.7,1.56,1.56Zm-1.49,29.4H7.64c-.86,0-1.56-.7-1.56-1.56s.7-1.56,1.56-1.56H53.59c.86,0,1.56,.7,1.56,1.56s-.7,1.56-1.56,1.56Zm0-6.32H7.64c-.86,0-1.56-.7-1.56-1.56s.7-1.56,1.56-1.56H53.59c.86,0,1.56,.7,1.56,1.56s-.7,1.56-1.56,1.56Zm0-6.32H7.64c-.86,0-1.56-.7-1.56-1.56s.7-1.56,1.56-1.56H53.59c.86,0,1.56,.7,1.56,1.56s-.7,1.56-1.56,1.56Zm0-6.32H7.64c-.86,0-1.56-.7-1.56-1.56s.7-1.56,1.56-1.56h25.83c-1.09-1.81-2.89-4.06-5.73-5.82-3.24-2.01-6.5-2.53-8.78-2.6-.24,3.37-3.04,6.03-6.47,6.03s-6.49-2.91-6.49-6.49,2.91-6.49,6.49-6.49c3.19,0,5.83,2.3,6.38,5.33,2.5,.05,6.11,.61,9.71,2.85,3.55,2.21,5.62,5.12,6.74,7.2h18.25c.86,0,1.56,.7,1.56,1.56s-.7,1.56-1.56,1.56Z"/>
  </g>
</svg>