<?xml version="1.0" encoding="UTF-8"?>
<svg id="Layer_2" data-name="Layer 2" xmlns="http://www.w3.org/2000/svg" viewBox="0 0 77.44 54.94">
  <defs>
    <style>
      .cls-1 {
        fill: #fff;
      }
    </style>
  </defs>
  <g id="Layer_1-2" data-name="Layer 1">
    <g>
      <path class="cls-1" d="M59.68,9.23c-1.82,0-3.54,.41-5.1,1.12,.41,1.41,.63,2.9,.63,4.44,0,5.18-2.48,9.77-6.32,12.66,2.09,3.81,6.14,6.39,10.78,6.39,6.79,0,12.3-5.51,12.3-12.3s-5.51-12.3-12.3-12.3Z"/>
      <circle class="cls-1" cx="38.03" cy="14.78" r="14.78"/>
      <path class="cls-1" d="M22.18,37.73c-1.41-.36-2.89-.55-4.42-.55C7.95,37.18,0,45.13,0,54.94H14.17c0-6.9,3.11-13.08,8-17.21Z"/>
      <path class="cls-1" d="M38.03,33.59c-11.79,0-21.35,9.56-21.35,21.35H59.37c0-11.79-9.56-21.35-21.35-21.35Z"/>
      <path class="cls-1" d="M20.84,14.78c0-1.72,.28-3.37,.78-4.92-1.22-.4-2.51-.63-3.86-.63-6.79,0-12.3,5.51-12.3,12.3s5.51,12.3,12.3,12.3c4.37,0,8.19-2.28,10.37-5.71-4.39-2.82-7.29-7.74-7.29-13.34Z"/>
      <path class="cls-1" d="M59.68,37.18c-1.91,0-3.74,.3-5.46,.86,4.69,4.12,7.65,10.16,7.65,16.9h15.57c0-9.81-7.95-17.76-17.76-17.76Z"/>
    </g>
  </g>
</svg>